<?xml version="1.0" encoding="utf-8"?>
<!-- Generator: Adobe Illustrator 17.0.0, SVG Export Plug-In . SVG Version: 6.00 Build 0)  -->
<!DOCTYPE svg PUBLIC "-//W3C//DTD SVG 1.1//EN" "http://www.w3.org/Graphics/SVG/1.1/DTD/svg11.dtd">
<svg version="1.1" id="Layer_1" xmlns="http://www.w3.org/2000/svg" xmlns:xlink="http://www.w3.org/1999/xlink" x="0px" y="0px"
	 width="595.28px" height="247.113px" viewBox="0 0 595.28 247.113" enable-background="new 0 0 595.28 247.113"
	 xml:space="preserve">
<g id="_x36_SMhdV_1_">
	<g>
		<path fill="#FFFFFF" d="M20.103,120.247c0-22.406-0.006-44.812,0.003-67.217c0.004-9.689,6.696-16.358,16.378-16.357
			c33.967,0.004,67.934,0.008,101.901,0.008c9.578,0,16.288,6.809,16.286,16.47c-0.006,44.632,0.002,89.265,0.009,133.897
			c0.001,7.935-3.595,13.232-10.998,15.909c-1.308,0.473-2.798,0.615-4.205,0.616c-34.684,0.031-69.368,0.037-104.052,0.009
			c-8.633-0.007-15.309-6.676-15.323-15.311c-0.037-22.675-0.013-45.349-0.013-68.024C20.094,120.247,20.098,120.247,20.103,120.247
			z M149.735,120.373c0-22.138,0.003-44.276-0.008-66.414c-0.001-1.069,0.017-2.169-0.209-3.203
			c-1.165-5.346-6.424-9.198-11.62-9.178c-33.341,0.13-66.683,0.18-100.023-0.036c-7.38-0.048-12.97,5.435-12.931,12.79
			c0.233,44.006,0.201,88.014,0.038,132.02c-0.03,8.099,6.119,12.685,12.555,12.677c33.252-0.044,66.504,0.003,99.755-0.025
			c7.521-0.006,12.441-5.017,12.443-12.486C149.74,164.47,149.737,142.421,149.735,120.373z"/>
		<path fill="#FFFFFF" d="M201.996,102.52c3.341-0.946,6.225-1.811,9.134-2.576c6.695-1.761,13.46-2.806,20.369-1.434
			c7.055,1.401,11.639,6.369,12.447,13.548c0.319,2.835,0.498,5.702,0.507,8.554c0.05,14.602-0.043,29.205,0.086,43.806
			c0.023,2.573-0.796,3.279-3.211,3.115c-2.675-0.182-5.384-0.199-8.056,0.004c-2.476,0.188-2.962-0.816-2.948-3.096
			c0.099-15.766,0.064-31.533,0.069-47.3c0.002-5.744-2.457-8.389-8.075-7.536c-6.141,0.933-12.157,2.683-18.235,4.044
			c-1.727,0.387-2.111,1.387-2.104,3.095c0.064,15.856-0.022,31.713,0.068,47.568c0.014,2.425-0.588,3.403-3.138,3.233
			c-3.033-0.203-6.089-0.085-9.134-0.047c-1.347,0.017-1.99-0.472-1.902-1.891c0.078-1.249,0.022-2.507,0.022-3.762
			c0-29.384,0.026-58.767-0.049-88.151c-0.006-2.406,0.549-3.413,3.115-3.216c2.761,0.212,5.556,0.157,8.326,0.014
			c2.088-0.108,2.785,0.553,2.756,2.724c-0.117,8.957-0.047,17.916-0.045,26.875C201.996,100.71,201.996,101.326,201.996,102.52z"/>
		<path fill="#FFFFFF" d="M463.891,126.187c4.691,0.959,8.145,0.214,11.059-3.698c4.672-6.272,9.025-12.689,12.221-19.826
			c0.997-2.226,2.172-3.302,4.801-3.123c3.977,0.272,7.986,0.071,12.625,0.071c-1.443,2.683-2.381,5.016-3.815,6.988
			c-5.093,7.005-10.279,13.947-15.61,20.771c-1.192,1.526-1.222,2.394-0.079,3.854c8.63,11.016,15.672,23.01,22.062,35.967
			c-1.127,0.122-1.946,0.28-2.767,0.288c-3.583,0.034-7.176-0.127-10.747,0.084c-2.27,0.134-3.338-0.673-4.137-2.765
			c-3.34-8.744-8.097-16.693-13.528-24.317c-2.574-3.613-5.435-5.284-9.861-4.708c-1.748,0.228-2.243,0.676-2.229,2.398
			c0.069,8.779-0.062,17.561,0.064,26.339c0.034,2.378-0.663,3.19-3.034,3.026c-2.675-0.185-5.385-0.197-8.057,0.008
			c-2.539,0.194-3.192-0.782-3.18-3.214c0.087-17.739,0.05-35.478,0.05-53.218c0-12.453,0.061-24.907-0.062-37.359
			c-0.026-2.604,0.77-3.477,3.351-3.272c2.671,0.212,5.38,0.177,8.057,0.01c2.281-0.142,2.869,0.733,2.858,2.93
			c-0.08,16.485-0.043,32.97-0.043,49.455C463.89,123.942,463.891,125.01,463.891,126.187z"/>
		<path fill="#FFFFFF" d="M271.917,135.757c0.602,5.779,0.346,11.274,2.909,16.286c1.55,3.031,4.227,4.922,7.486,4.983
			c5.041,0.094,10.16-0.05,15.124-0.851c5.071-0.818,9.994-2.551,15.187-3.938c0.735,3.246,1.477,6.52,2.375,10.484
			c-5.268,1.701-10.418,3.698-15.738,5.004c-8.253,2.025-16.635,2.262-24.941,0.069c-7.376-1.947-12.196-6.728-14.191-14.005
			c-2.359-8.608-2.775-17.436-1.93-26.316c0.575-6.038,1.131-12.078,1.798-18.106c0.205-1.855,0.471-3.799,1.236-5.461
			c0.512-1.112,1.84-2.347,2.994-2.581c6.281-1.274,12.586-2.686,18.951-3.203c5.394-0.438,10.973-0.278,16.307,0.604
			c9.753,1.613,16.014,9.025,17.024,19.433c0.474,4.886,0.398,9.823,0.699,14.729c0.135,2.196-0.575,2.935-2.856,2.917
			c-12.995-0.1-25.991-0.048-38.987-0.048C274.322,135.757,273.279,135.757,271.917,135.757z M287.547,125.969
			c2.866,0,5.732,0,8.597,0c8.3,0,8.714-0.557,6.492-8.729c-0.117-0.431-0.202-0.875-0.361-1.29
			c-1.247-3.258-3.504-5.774-7.007-5.848c-6.749-0.142-13.512,0.225-20.261,0.552c-0.633,0.031-1.617,1.212-1.737,1.97
			c-0.575,3.609-0.91,7.255-1.324,10.889c-0.208,1.823,0.533,2.537,2.437,2.489C278.769,125.89,283.159,125.966,287.547,125.969z"/>
		<path fill="#FFFFFF" d="M402.898,169.477c-3.171-0.466-7.213-0.711-11.067-1.696c-9.438-2.412-15.293-8.727-17.634-18.038
			c-2.747-10.93-2.929-21.965,0.606-32.781c3.451-10.559,10.855-16.719,21.864-18.451c6.241-0.982,12.493-0.997,18.627,0.553
			c8.888,2.247,15.501,7.362,18.158,16.39c3.621,12.299,3.855,24.688-0.798,36.816c-3.572,9.309-10.674,14.542-20.38,16.263
			C409.477,169.03,406.605,169.118,402.898,169.477z M385.859,132.821c0.291,4.031,0.13,6.878,0.778,9.527
			c0.854,3.491,1.83,7.144,3.687,10.152c2.452,3.972,6.962,4.496,11.347,4.867c9.649,0.817,16.767-3.056,19.115-12.365
			c1.729-6.854,1.676-13.77,0.774-20.678c-0.63-4.825-1.719-9.773-6.442-12.324c-2.484-1.341-5.495-2.05-8.337-2.318
			c-8.847-0.833-16.7,2.112-19.171,12.243C386.643,125.884,386.298,129.995,385.859,132.821z"/>
		<path fill="#FFFFFF" d="M574.728,129.246c0,8.961-0.049,17.923,0.04,26.884c0.019,1.882-0.636,2.939-2.281,3.781
			c-12.574,6.444-25.782,10-40.027,9.209c-8.159-0.453-14.756-7.165-14.836-15.848c-0.159-17.115-0.045-34.233-0.092-51.349
			c-0.005-1.722,0.548-2.413,2.335-2.346c3.043,0.114,6.101,0.172,9.137-0.011c2.242-0.135,2.697,0.776,2.689,2.808
			c-0.065,16.22,0.08,32.442-0.103,48.66c-0.056,4.962,2.932,6.899,6.888,6.399c6.424-0.813,12.738-2.482,19.108-3.743
			c2.525-0.5,3.063-2.003,3.046-4.434c-0.109-15.503-0.009-31.007-0.103-46.51c-0.015-2.426,0.581-3.401,3.154-3.187
			c2.759,0.229,5.56,0.178,8.327,0.005c2.198-0.137,2.757,0.73,2.737,2.796c-0.086,8.961-0.037,17.923-0.037,26.884
			C574.715,129.246,574.722,129.246,574.728,129.246z"/>
		<path fill="#FFFFFF" d="M330.925,137.632c0-8.87,0.063-17.74-0.046-26.608c-0.026-2.115,0.742-3.179,2.602-4.099
			c8.845-4.378,18.279-6.543,27.975-7.846c2.283-0.307,3.347,0.338,3.09,2.847c-0.2,1.95-0.202,3.955,0.006,5.905
			c0.272,2.553-1.247,2.905-3.187,3.21c-4.394,0.69-8.771,1.489-13.146,2.296c-2.342,0.432-3.241,1.672-3.217,4.281
			c0.147,15.677,0.023,31.356,0.112,47.034c0.013,2.252-0.648,3-2.877,2.88c-2.948-0.159-5.914-0.116-8.866,0.006
			c-1.892,0.078-2.481-0.634-2.467-2.491c0.07-9.138,0.032-18.276,0.032-27.415C330.932,137.632,330.928,137.632,330.925,137.632z"
			/>
		<path fill="#FFFFFF" d="M51.61,120.22c6.245-2.16,12.081-4.34,18.019-6.197c9.273-2.9,18.561-5.855,28.503-5.166
			c5.046,0.35,6.852,2.168,6.857,7.219c0.018,20.426,0.011,40.852,0.015,61.278c0,0.716-0.155,1.494,0.076,2.129
			c0.201,0.55,0.841,1.328,1.299,1.336c5.252,0.094,10.506,0.06,15.823,0.06c0.078-0.645,0.156-0.986,0.156-1.328
			c0.023-22.217,0.17-44.436-0.027-66.651c-0.055-6.266-2.284-11.901-7.871-15.659c-5.331-3.586-11.437-4.408-17.477-3.934
			c-6.441,0.506-12.807,2.104-19.172,3.395c-2.648,0.537-5.206,1.515-8.124,2.388c0-1.655,0-2.895,0-4.134
			c0.002-10.93-0.039-21.86,0.046-32.789c0.014-1.869-0.493-2.532-2.402-2.475c-4.297,0.129-8.605,0.209-12.897,0.034
			c-2.527-0.103-3.181,0.77-3.168,3.224c0.095,18.096,0.048,36.193,0.064,54.29C51.332,118.167,51.5,119.094,51.61,120.22z
			 M96.355,83.038c5.757,0,11.302,0.07,16.842-0.066c0.98-0.024,2.317-0.652,2.847-1.435c3.554-5.245,6.997-10.568,10.332-15.954
			c1.035-1.671,1.625-3.618,2.569-5.782c-4.083,0-7.796,0.423-11.373-0.093c-6.285-0.907-9.807,1.185-12.16,7.337
			C103.281,72.612,99.536,77.561,96.355,83.038z M51.973,144.324c0,11.722,0,23.362,0,34.626
			c5.768-5.676,11.637-11.453,17.607-17.329C63.775,155.919,57.932,150.178,51.973,144.324z"/>
		<path fill="#FFFFFF" d="M51.61,120.22c-0.11-1.127-0.279-2.053-0.279-2.98c-0.016-18.097,0.031-36.194-0.064-54.29
			c-0.013-2.454,0.641-3.327,3.168-3.224c4.292,0.175,8.6,0.096,12.897-0.034c1.909-0.058,2.416,0.606,2.402,2.475
			c-0.085,10.929-0.044,21.859-0.046,32.789c0,1.24,0,2.479,0,4.134c2.918-0.873,5.476-1.851,8.124-2.388
			c6.364-1.291,12.73-2.89,19.172-3.395c6.04-0.474,12.146,0.348,17.477,3.934c5.587,3.758,7.816,9.394,7.871,15.659
			c0.196,22.216,0.05,44.434,0.027,66.651c0,0.342-0.078,0.683-0.156,1.328c-5.317,0-10.571,0.034-15.823-0.06
			c-0.458-0.008-1.099-0.786-1.299-1.336c-0.231-0.635-0.076-1.413-0.076-2.129c-0.004-20.426,0.003-40.852-0.015-61.278
			c-0.004-5.051-1.811-6.869-6.857-7.219c-9.942-0.689-19.229,2.266-28.503,5.166C63.691,115.88,57.855,118.06,51.61,120.22z"/>
		<path fill="#FFFFFF" d="M96.355,83.038c3.181-5.477,6.927-10.426,9.056-15.994c2.353-6.152,5.875-8.243,12.16-7.337
			c3.577,0.516,7.29,0.093,11.373,0.093c-0.944,2.164-1.534,4.111-2.569,5.782c-3.336,5.387-6.779,10.71-10.332,15.954
			c-0.531,0.783-1.867,1.411-2.847,1.435C107.657,83.108,102.111,83.038,96.355,83.038z"/>
		<path fill="#FFFFFF" d="M51.973,144.324c5.959,5.854,11.802,11.594,17.607,17.297c-5.97,5.876-11.84,11.652-17.607,17.329
			C51.973,167.686,51.973,156.046,51.973,144.324z"/>
	</g>
</g>
</svg>
