<?xml version="1.0" encoding="utf-8"?>
<!-- Generator: Adobe Illustrator 17.0.0, SVG Export Plug-In . SVG Version: 6.00 Build 0)  -->
<!DOCTYPE svg PUBLIC "-//W3C//DTD SVG 1.1//EN" "http://www.w3.org/Graphics/SVG/1.1/DTD/svg11.dtd">
<svg version="1.1" xmlns="http://www.w3.org/2000/svg" xmlns:xlink="http://www.w3.org/1999/xlink" x="0px" y="0px"
	 width="595.28px" height="247.113px" viewBox="0 0 595.28 247.113" enable-background="new 0 0 595.28 247.113"
	 xml:space="preserve">
<g id="Layer_2">
</g>
<g id="Layer_1">
	<g>
		<g id="tWAycj_1_">
		</g>
	</g>
	<g>
		<path fill="#FFFFFF" d="M424.882,49.809c0.637-0.047,0.954-0.091,1.27-0.091c10.757,0.009,21.514-0.02,32.27,0.067
			c2.499,0.02,5.016,0.312,7.49,0.701c10.354,1.627,17.262,8.453,18.711,18.78c1.519,10.826-4.242,21.527-15.831,24.545
			c-4.278,1.114-8.641,1.375-13.021,1.436c-4.959,0.069-9.919,0.015-14.879,0.029c-0.836,0.002-1.684-0.005-2.504,0.13
			c-2.537,0.419-3.893,1.978-3.971,4.457c-0.084,2.664,1.133,4.25,3.753,4.806c0.75,0.159,1.529,0.247,2.295,0.25
			c5.282,0.015,10.565,0.064,15.845-0.027c5.483-0.094,10.938-0.544,16.206-2.233c17.441-5.592,25.755-20.692,21.923-37.873
			c-2.392-10.725-9.392-17.623-19.409-21.644c-5.27-2.115-10.827-2.933-16.445-2.993c-12.881-0.137-25.764-0.096-38.647-0.08
			c-3.508,0.004-5.055,1.542-5.311,5.008c-0.024,0.321-0.021,0.644-0.021,0.966c-0.001,36.2-0.003,72.4,0.012,108.6
			c0,0.958,0.088,1.943,0.323,2.868c0.563,2.22,2.328,3.488,4.716,3.531c2.436,0.044,4.209-1.098,4.82-3.345
			c0.315-1.159,0.389-2.412,0.39-3.622c0.02-33.881,0.016-67.762,0.016-101.644C424.882,51.61,424.882,50.787,424.882,49.809z
			 M336.668,54.536c0.426,0.927,0.726,1.548,1,2.181c14.387,33.187,28.767,66.376,43.172,99.555
			c0.481,1.109,1.099,2.193,1.834,3.149c0.908,1.18,2.196,1.746,3.739,1.605c3.527-0.322,5.735-3.576,4.688-6.944
			c-0.152-0.49-0.369-0.961-0.576-1.433c-15.732-35.901-31.464-71.802-47.211-107.696c-0.437-0.996-0.973-1.963-1.573-2.872
			c-2.201-3.332-7.663-3.377-9.905,0.042c-0.631,0.963-1.17,2.002-1.633,3.057c-15.674,35.716-31.334,71.437-46.992,107.159
			c-0.284,0.648-0.585,1.297-0.777,1.975c-0.741,2.615,0.43,5.038,2.955,6.2c2.434,1.121,4.61,0.49,6.174-1.886
			c0.561-0.853,0.986-1.806,1.392-2.749c14.221-32.978,28.432-65.96,42.646-98.941C335.901,56.247,336.214,55.56,336.668,54.536z
			 M199.669,49.713c0.91,0,1.666,0,2.422,0c18.228,0,36.455,0.007,54.683-0.018c1.209-0.002,2.46-0.104,3.619-0.425
			c2.054-0.569,3.014-2.108,3.011-4.401c-0.003-2.295-0.959-3.813-3.03-4.385c-1.158-0.32-2.409-0.413-3.619-0.415
			c-20.353-0.024-40.706-0.018-61.059-0.013c-0.772,0-1.554-0.018-2.313,0.097c-2.373,0.358-3.642,1.688-3.919,4.086
			c-0.096,0.829-0.103,1.671-0.103,2.507c-0.005,35.682-0.005,71.365-0.001,107.047c0,0.772-0.001,1.548,0.071,2.316
			c0.254,2.709,1.54,4.046,4.238,4.422c0.508,0.071,1.028,0.074,1.542,0.075c20.675,0.004,41.35,0.008,62.025-0.011
			c0.956-0.001,1.937-0.111,2.862-0.346c2.196-0.557,3.275-2.052,3.306-4.382c0.032-2.404-0.92-3.921-3.105-4.517
			c-1.158-0.316-2.411-0.384-3.621-0.386c-18.228-0.023-36.455-0.016-54.683-0.016c-0.747,0-1.495,0-2.325,0
			C199.669,117.132,199.669,83.592,199.669,49.713z M110.227,150.945c0-1.131,0-1.964,0-2.797c0-33.818,0.004-67.636-0.015-101.453
			c-0.001-1.213-0.092-2.455-0.365-3.632c-0.391-1.688-1.514-2.885-3.221-3.27c-3.764-0.848-6.033,1.027-6.499,3.958
			c-0.12,0.759-0.197,1.533-0.197,2.301c-0.009,36.137-0.009,72.273,0,108.41c0,0.768,0.068,1.543,0.187,2.302
			c0.328,2.104,1.6,3.309,3.675,3.666c0.631,0.108,1.278,0.168,1.918,0.168c19.324,0.009,38.649,0.013,57.973-0.01
			c1.018-0.001,2.069-0.131,3.046-0.407c2.029-0.573,3.071-2.141,3.087-4.372c0.016-2.285-0.93-3.827-2.993-4.421
			c-1.152-0.331-2.406-0.423-3.615-0.425c-16.812-0.026-33.625-0.018-50.437-0.018C112.013,150.945,111.253,150.945,110.227,150.945
			z M127.671,204.983c0.144,0.027,0.288,0.055,0.432,0.082c0,0.622,0.001,1.244,0,1.866c-0.011,6.055-0.025,12.11-0.03,18.165
			c-0.001,0.643-0.03,1.3,0.091,1.924c0.188,0.965,1.006,1.57,1.937,1.57c0.949,0,1.7-0.566,1.915-1.571
			c0.133-0.622,0.15-1.277,0.151-1.918c0.009-7.73,0.009-15.46,0-23.19c-0.001-0.641-0.021-1.295-0.146-1.92
			c-0.244-1.214-0.884-1.752-2.1-1.911c-1.392-0.182-2.567,0.209-3.379,1.389c-0.546,0.793-1.043,1.626-1.505,2.472
			c-2.718,4.971-5.416,9.953-8.132,14.925c-0.228,0.417-0.536,0.789-0.896,1.31c-0.43-0.748-0.759-1.296-1.065-1.856
			c-2.679-4.919-5.344-9.845-8.039-14.756c-0.462-0.842-0.971-1.681-1.591-2.408c-0.924-1.086-2.656-1.447-3.889-0.909
			c-1.263,0.551-1.488,1.671-1.501,2.887c-0.001,0.129-0.001,0.258-0.001,0.386c0,7.988-0.004,15.975,0.008,23.963
			c0.001,0.572,0.045,1.162,0.187,1.713c0.24,0.93,0.954,1.375,1.869,1.383c0.922,0.008,1.648-0.446,1.873-1.371
			c0.164-0.676,0.19-1.398,0.19-2.099c0-6.248-0.023-12.497-0.026-18.745c0-0.45,0.106-0.899,0.215-1.755
			c0.532,0.973,0.843,1.53,1.143,2.094c2.666,4.999,5.327,10.001,7.998,14.997c0.579,1.082,1.128,2.257,2.599,2.297
			c1.584,0.043,2.156-1.203,2.765-2.342c2.67-4.997,5.328-10,7.993-15C127.038,206.094,127.359,205.541,127.671,204.983z
			 M462.523,204.611c0.665,0.804,1.071,1.265,1.444,1.751c4.629,6.027,9.251,12.06,13.879,18.088
			c0.706,0.919,1.403,1.848,2.156,2.728c0.88,1.029,1.928,1.776,3.373,1.248c1.449-0.529,1.456-1.803,1.456-3.056
			c-0.001-8.116,0.001-16.232-0.005-24.348c0-0.513,0.007-1.043-0.115-1.535c-0.242-0.975-0.989-1.464-2.018-1.429
			c-0.957,0.033-1.629,0.491-1.791,1.437c-0.14,0.818-0.16,1.664-0.158,2.497c0.017,5.926,0.056,11.851,0.076,17.777
			c0.002,0.469-0.09,0.939-0.18,1.817c-0.728-0.927-1.205-1.52-1.668-2.123c-4.822-6.285-9.639-12.574-14.468-18.854
			c-0.509-0.661-1.036-1.323-1.642-1.891c-0.894-0.837-2.017-0.849-3.086-0.465c-1.047,0.376-1.335,1.312-1.334,2.352
			c0,0.258-0.009,0.515-0.009,0.773c0,8.052-0.001,16.103,0.001,24.155c0,0.386-0.009,0.776,0.041,1.158
			c0.159,1.224,0.921,1.926,2.023,1.9c1.096-0.027,1.806-0.744,1.93-2.004c0.05-0.511,0.027-1.03,0.026-1.545
			c-0.01-6.055-0.024-12.11-0.029-18.164C462.425,206.262,462.476,205.65,462.523,204.611z M227.793,95.274
			c-4.243,0-8.486-0.026-12.729,0.019c-1.013,0.011-2.067,0.127-3.027,0.432c-2.033,0.645-2.927,2.137-2.891,4.471
			c0.035,2.262,1.051,3.77,3.114,4.323c1.041,0.279,2.154,0.392,3.236,0.396c8.165,0.031,16.329,0.024,24.494,0.007
			c0.829-0.002,1.673-0.074,2.485-0.238c2.634-0.534,3.899-2.119,3.853-4.726c-0.044-2.531-1.471-4.158-4.075-4.566
			c-0.757-0.119-1.538-0.114-2.308-0.116C235.893,95.266,231.843,95.272,227.793,95.274z M336.728,120.18
			c3.153,0,6.306,0.016,9.458-0.01c0.961-0.008,1.947-0.021,2.877-0.229c2.325-0.519,3.56-2.206,3.532-4.629
			c-0.028-2.42-1.303-4.037-3.669-4.509c-0.939-0.187-1.915-0.254-2.875-0.257c-6.177-0.022-12.354-0.02-18.53-0.001
			c-0.896,0.003-1.805,0.067-2.685,0.23c-2.488,0.46-3.818,2.085-3.832,4.576c-0.015,2.536,1.421,4.266,3.958,4.678
			c0.82,0.133,1.667,0.14,2.501,0.145C330.551,120.189,333.639,120.18,336.728,120.18z M265.636,202.004c0,0.938,0,1.629,0,2.32
			c0,6.945-0.002,13.891,0.004,20.836c0.001,0.641-0.023,1.299,0.108,1.919c0.199,0.938,1.049,1.554,1.981,1.507
			c0.914-0.046,1.641-0.456,1.855-1.394c0.156-0.68,0.207-1.396,0.209-2.097c0.015-6.945,0.009-13.891,0.009-20.836
			c0-0.686,0-1.372,0-2.159c0.869-0.039,1.497-0.088,2.125-0.091c2.186-0.01,4.373-0.001,6.559-0.007
			c0.449-0.001,0.908,0.015,1.346-0.065c0.935-0.171,1.46-0.782,1.555-1.716c0.094-0.929-0.519-1.727-1.501-1.96
			c-0.369-0.088-0.766-0.083-1.15-0.084c-7.396-0.004-14.791-0.004-22.187,0.002c-0.383,0-0.785,0.001-1.146,0.107
			c-0.9,0.266-1.392,0.873-1.367,1.85c0.024,0.945,0.487,1.581,1.445,1.774c0.56,0.113,1.151,0.09,1.728,0.092
			C259.909,202.008,262.607,202.004,265.636,202.004z M327.88,213.324c0,3.99-0.002,7.979,0.002,11.969
			c0.001,0.514-0.023,1.037,0.062,1.54c0.184,1.08,0.966,1.743,1.982,1.759c0.937,0.015,1.703-0.541,1.966-1.526
			c0.13-0.488,0.159-1.015,0.159-1.525c0.009-8.172,0.011-16.344-0.003-24.517c-0.001-0.57-0.068-1.161-0.23-1.705
			c-0.276-0.927-0.997-1.276-1.934-1.261c-0.96,0.015-1.614,0.488-1.863,1.382c-0.152,0.545-0.134,1.146-0.135,1.722
			C327.875,205.216,327.88,209.27,327.88,213.324z"/>
		<path fill="#FFFFFF" d="M424.882,49.809c0,0.978,0,1.801,0,2.623c0,33.881,0.004,67.762-0.016,101.644
			c-0.001,1.21-0.075,2.464-0.39,3.622c-0.611,2.247-2.384,3.388-4.82,3.345c-2.388-0.043-4.152-1.311-4.716-3.531
			c-0.235-0.925-0.323-1.91-0.323-2.868c-0.016-36.2-0.013-72.4-0.012-108.6c0-0.322-0.002-0.645,0.021-0.966
			c0.256-3.467,1.802-5.004,5.311-5.008c12.882-0.016,25.766-0.057,38.647,0.08c5.618,0.06,11.175,0.877,16.445,2.993
			c10.018,4.021,17.017,10.919,19.409,21.644c3.832,17.181-4.482,32.282-21.923,37.873c-5.267,1.689-10.723,2.138-16.206,2.233
			c-5.28,0.091-10.563,0.042-15.845,0.027c-0.766-0.002-1.546-0.091-2.295-0.25c-2.62-0.555-3.838-2.142-3.753-4.806
			c0.079-2.48,1.434-4.038,3.971-4.457c0.82-0.135,1.669-0.128,2.504-0.13c4.96-0.014,9.92,0.04,14.879-0.029
			c4.38-0.061,8.743-0.321,13.021-1.436c11.589-3.018,17.35-13.72,15.831-24.545c-1.449-10.327-8.357-17.153-18.711-18.78
			c-2.474-0.389-4.99-0.681-7.49-0.701c-10.756-0.088-21.513-0.058-32.27-0.067C425.836,49.718,425.519,49.762,424.882,49.809z"/>
		<path fill="#FFFFFF" d="M336.668,54.536c-0.455,1.024-0.768,1.711-1.066,2.404c-14.214,32.981-28.425,65.963-42.646,98.941
			c-0.406,0.942-0.831,1.896-1.392,2.749c-1.564,2.376-3.74,3.007-6.174,1.886c-2.526-1.163-3.697-3.585-2.955-6.2
			c0.192-0.677,0.493-1.327,0.777-1.975c15.658-35.722,31.318-71.444,46.992-107.159c0.463-1.056,1.002-2.094,1.633-3.057
			c2.242-3.419,7.704-3.374,9.905-0.042c0.6,0.908,1.136,1.875,1.573,2.872c15.747,35.894,31.479,71.795,47.211,107.696
			c0.207,0.471,0.423,0.943,0.576,1.433c1.047,3.368-1.161,6.621-4.688,6.944c-1.544,0.141-2.832-0.425-3.739-1.605
			c-0.735-0.956-1.352-2.04-1.834-3.149c-14.404-33.179-28.785-66.369-43.172-99.555C337.395,56.084,337.095,55.463,336.668,54.536z
			"/>
		<path fill="#FFFFFF" d="M199.669,49.713c0,33.879,0,67.419,0,101.232c0.83,0,1.578,0,2.325,0c18.228,0,36.455-0.007,54.683,0.016
			c1.21,0.002,2.464,0.07,3.621,0.386c2.185,0.596,3.137,2.113,3.105,4.517c-0.031,2.33-1.109,3.825-3.306,4.382
			c-0.925,0.235-1.906,0.345-2.862,0.346c-20.675,0.019-41.35,0.015-62.025,0.011c-0.514,0-1.034-0.004-1.542-0.075
			c-2.698-0.376-3.984-1.712-4.238-4.422c-0.072-0.767-0.071-1.543-0.071-2.316c-0.003-35.682-0.003-71.365,0.001-107.047
			c0-0.836,0.008-1.678,0.103-2.507c0.277-2.397,1.546-3.727,3.919-4.086c0.759-0.115,1.541-0.096,2.313-0.097
			c20.353-0.005,40.706-0.01,61.059,0.013c1.21,0.001,2.461,0.095,3.619,0.415c2.071,0.572,3.027,2.091,3.03,4.385
			c0.003,2.294-0.957,3.832-3.011,4.401c-1.158,0.321-2.409,0.423-3.619,0.425c-18.228,0.026-36.455,0.018-54.683,0.018
			C201.335,49.713,200.579,49.713,199.669,49.713z"/>
		<path fill="#FFFFFF" d="M110.227,150.945c1.026,0,1.786,0,2.546,0c16.812,0,33.625-0.008,50.437,0.018
			c1.209,0.002,2.463,0.093,3.615,0.425c2.062,0.593,3.008,2.135,2.993,4.421c-0.016,2.231-1.058,3.8-3.087,4.372
			c-0.977,0.276-2.028,0.406-3.046,0.407c-19.324,0.023-38.649,0.019-57.973,0.01c-0.64,0-1.287-0.06-1.918-0.168
			c-2.075-0.356-3.347-1.562-3.675-3.666c-0.118-0.759-0.187-1.534-0.187-2.302c-0.009-36.137-0.009-72.273,0-108.41
			c0-0.767,0.077-1.542,0.197-2.301c0.465-2.931,2.735-4.806,6.499-3.958c1.707,0.384,2.829,1.582,3.221,3.27
			c0.273,1.177,0.364,2.419,0.365,3.632c0.018,33.818,0.015,67.636,0.015,101.453C110.227,148.981,110.227,149.814,110.227,150.945z
			"/>
		<path fill="#FFFFFF" d="M127.671,204.983c-0.312,0.558-0.633,1.11-0.933,1.674c-2.665,4.999-5.322,10.003-7.993,15
			c-0.609,1.139-1.181,2.384-2.765,2.342c-1.471-0.04-2.02-1.214-2.599-2.297c-2.671-4.996-5.332-9.998-7.998-14.997
			c-0.3-0.563-0.612-1.121-1.143-2.094c-0.108,0.856-0.215,1.306-0.215,1.755c0.003,6.248,0.026,12.497,0.026,18.745
			c0,0.701-0.026,1.423-0.19,2.099c-0.225,0.925-0.951,1.379-1.873,1.371c-0.915-0.008-1.63-0.453-1.869-1.383
			c-0.142-0.551-0.186-1.141-0.187-1.713c-0.011-7.988-0.008-15.975-0.008-23.963c0-0.129,0-0.258,0.001-0.386
			c0.013-1.216,0.237-2.337,1.501-2.887c1.233-0.537,2.964-0.176,3.889,0.909c0.62,0.728,1.128,1.566,1.591,2.408
			c2.695,4.91,5.36,9.837,8.039,14.756c0.305,0.56,0.634,1.107,1.065,1.856c0.36-0.521,0.669-0.894,0.896-1.31
			c2.716-4.972,5.414-9.954,8.132-14.925c0.462-0.846,0.959-1.678,1.505-2.472c0.812-1.179,1.987-1.57,3.379-1.389
			c1.217,0.159,1.856,0.697,2.1,1.911c0.126,0.625,0.145,1.279,0.146,1.92c0.009,7.73,0.009,15.46,0,23.19
			c-0.001,0.641-0.018,1.296-0.151,1.918c-0.215,1.006-0.967,1.571-1.915,1.571c-0.931,0-1.749-0.605-1.937-1.57
			c-0.121-0.624-0.092-1.282-0.091-1.924c0.005-6.055,0.019-12.11,0.03-18.165c0.001-0.622,0-1.244,0-1.866
			C127.959,205.038,127.815,205.01,127.671,204.983z"/>
		<path fill="#FFFFFF" d="M195.293,229.12c-8.973-0.016-15.712-6.799-15.72-15.825c-0.008-8.98,6.8-15.859,15.715-15.881
			c9.003-0.022,15.867,6.91,15.814,15.972C211.049,222.404,204.285,229.136,195.293,229.12z M206.617,213.063
			c-0.013-0.263-0.021-0.843-0.075-1.418c-0.512-5.502-4.68-9.809-10.011-10.356c-5.451-0.559-10.404,2.678-11.876,8.034
			c-0.499,1.815-0.648,3.828-0.476,5.707c0.677,7.435,7.824,12.056,14.821,9.726C203.606,223.223,206.591,218.763,206.617,213.063z"
			/>
		<path fill="#FFFFFF" d="M395.235,229.12c-9.005,0.006-15.709-6.694-15.768-15.758c-0.059-9.065,6.804-15.982,15.822-15.948
			c8.922,0.033,15.679,6.892,15.669,15.906C410.949,222.348,404.216,229.114,395.235,229.12z M406.501,213.026
			c-0.03-0.393-0.053-1.101-0.141-1.801c-0.676-5.407-4.919-9.546-10.185-9.951c-5.506-0.423-10.316,2.884-11.72,8.268
			c-0.429,1.646-0.579,3.444-0.453,5.142c0.566,7.64,7.788,12.462,14.908,10.063C403.502,223.2,406.485,218.716,406.501,213.026z"/>
		<path fill="#FFFFFF" d="M462.523,204.611c-0.047,1.039-0.098,1.652-0.098,2.264c0.005,6.055,0.019,12.11,0.029,18.164
			c0.001,0.515,0.024,1.034-0.026,1.545c-0.124,1.26-0.834,1.977-1.93,2.004c-1.102,0.027-1.864-0.676-2.023-1.9
			c-0.05-0.381-0.04-0.772-0.041-1.158c-0.002-8.052-0.002-16.103-0.001-24.155c0-0.258,0.009-0.515,0.009-0.773
			c-0.001-1.039,0.287-1.976,1.334-2.352c1.069-0.384,2.193-0.372,3.086,0.465c0.606,0.568,1.133,1.23,1.642,1.891
			c4.829,6.28,9.646,12.569,14.468,18.854c0.463,0.603,0.939,1.197,1.668,2.123c0.09-0.878,0.182-1.348,0.18-1.817
			c-0.02-5.926-0.06-11.851-0.076-17.777c-0.002-0.833,0.018-1.679,0.158-2.497c0.162-0.946,0.834-1.404,1.791-1.437
			c1.028-0.035,1.776,0.454,2.018,1.429c0.122,0.491,0.115,1.022,0.115,1.535c0.006,8.116,0.004,16.232,0.005,24.348
			c0,1.253-0.007,2.527-1.456,3.056c-1.446,0.528-2.493-0.219-3.373-1.248c-0.753-0.88-1.45-1.809-2.156-2.728
			c-4.628-6.028-9.25-12.06-13.879-18.088C463.594,205.876,463.188,205.415,462.523,204.611z"/>
		<path fill="#FFFFFF" d="M227.793,95.273c4.05-0.001,8.1-0.007,12.151,0.004c0.77,0.002,1.551-0.003,2.308,0.116
			c2.604,0.408,4.031,2.035,4.075,4.566c0.046,2.607-1.219,4.192-3.853,4.726c-0.812,0.165-1.656,0.237-2.485,0.238
			c-8.165,0.017-16.329,0.024-24.494-0.007c-1.081-0.004-2.195-0.117-3.236-0.396c-2.063-0.553-3.079-2.061-3.114-4.323
			c-0.036-2.334,0.858-3.826,2.891-4.471c0.96-0.305,2.014-0.421,3.027-0.432C219.307,95.247,223.55,95.274,227.793,95.273z"/>
		<path fill="#FFFFFF" d="M336.728,120.18c-3.088,0-6.177,0.01-9.265-0.006c-0.835-0.004-1.681-0.012-2.501-0.145
			c-2.538-0.412-3.973-2.143-3.958-4.678c0.014-2.491,1.344-4.116,3.832-4.576c0.88-0.163,1.789-0.227,2.685-0.23
			c6.177-0.019,12.354-0.021,18.53,0.001c0.96,0.003,1.936,0.07,2.875,0.257c2.366,0.472,3.641,2.089,3.669,4.509
			c0.028,2.423-1.207,4.11-3.532,4.629c-0.93,0.208-1.916,0.221-2.877,0.229C343.033,120.196,339.88,120.18,336.728,120.18z"/>
		<path fill="#FFFFFF" d="M265.636,202.004c-3.029,0-5.727,0.005-8.425-0.004c-0.577-0.002-1.168,0.021-1.728-0.092
			c-0.958-0.193-1.421-0.829-1.445-1.774c-0.025-0.977,0.467-1.584,1.367-1.85c0.362-0.107,0.763-0.107,1.146-0.107
			c7.396-0.006,14.791-0.006,22.187-0.002c0.384,0,0.781-0.004,1.15,0.084c0.982,0.233,1.595,1.032,1.501,1.96
			c-0.095,0.934-0.62,1.545-1.555,1.716c-0.438,0.08-0.897,0.064-1.346,0.065c-2.186,0.006-4.373-0.003-6.559,0.007
			c-0.628,0.003-1.256,0.052-2.125,0.091c0,0.787,0,1.473,0,2.159c0,6.945,0.005,13.891-0.009,20.836
			c-0.001,0.7-0.053,1.417-0.209,2.097c-0.214,0.938-0.942,1.348-1.855,1.394c-0.932,0.047-1.783-0.568-1.981-1.507
			c-0.131-0.62-0.108-1.278-0.108-1.919c-0.007-6.945-0.004-13.891-0.004-20.836C265.636,203.633,265.636,202.942,265.636,202.004z"
			/>
		<path fill="#FFFFFF" d="M327.88,213.324c0-4.054-0.005-8.108,0.006-12.162c0.001-0.576-0.016-1.177,0.135-1.722
			c0.249-0.894,0.903-1.367,1.863-1.382c0.937-0.015,1.658,0.334,1.934,1.261c0.162,0.544,0.229,1.135,0.23,1.705
			c0.014,8.172,0.013,16.344,0.003,24.517c-0.001,0.51-0.029,1.036-0.159,1.525c-0.262,0.985-1.028,1.541-1.966,1.526
			c-1.016-0.016-1.798-0.678-1.982-1.759c-0.085-0.502-0.062-1.026-0.062-1.54C327.878,221.303,327.88,217.313,327.88,213.324z"/>
	</g>
</g>
</svg>
