<?xml version="1.0" encoding="utf-8"?>
<!-- Generator: Adobe Illustrator 17.0.0, SVG Export Plug-In . SVG Version: 6.00 Build 0)  -->
<!DOCTYPE svg PUBLIC "-//W3C//DTD SVG 1.1//EN" "http://www.w3.org/Graphics/SVG/1.1/DTD/svg11.dtd">
<svg version="1.1" xmlns="http://www.w3.org/2000/svg" xmlns:xlink="http://www.w3.org/1999/xlink" x="0px" y="0px" width="40px"
	 height="204.282px" viewBox="0 0 40 204.282" enable-background="new 0 0 40 204.282" xml:space="preserve">
<g id="Layer_1">
	<path fill="#C9C9C9" d="M0,204.282L0,101h40v63.949C40,164.949,44.667,203.282,0,204.282z"/>
	<path fill="#C9C9C9" d="M0,0l0,103.282h40V39.333C40,39.333,44.667,1,0,0z"/>
</g>
<g id="Layer_3" display="none">
	<path display="inline" fill="#B7B7B7" d="M0.139,204.282l0-103.282h-40v63.949C-39.861,164.949-44.527,203.282,0.139,204.282z"/>
	<path display="inline" fill="#B7B7B7" d="M0.139,0.141l0,103.282h-40V39.474C-39.861,39.474-44.527,1.141,0.139,0.141z"/>
	<rect x="-4.861" y="23.474" display="inline" fill="#050606" width="5.333" height="159.333"/>
</g>
<g id="Layer_2" display="none">
	<g id="Laag_2" display="inline">
		<linearGradient id="SVGID_1_" gradientUnits="userSpaceOnUse" x1="-131.8431" y1="39.097" x2="-131.8431" y2="171.1135">
			<stop  offset="0.5" style="stop-color:#00A9A9"/>
			<stop  offset="0.5" style="stop-color:#00A39F"/>
		</linearGradient>
		<path fill="url(#SVGID_1_)" d="M1.267,151.147v-7.01c-3.683-0.444-3.683-6.167,0-6.611v-6.434c-3.683-0.444-3.683-6.167,0-6.611
			v-6.655c-10.249-1.154-18.414-10.028-18.414-20.499s8.164-19.39,18.414-20.499V71.37c-3.683-0.444-3.683-6.167,0-6.611v-6.655
			c-4.082-0.133-4.082-6.478,0-6.655V45.99c-0.044,0-0.089,0-0.133,0c-4.304,0-4.304-6.655,0-6.655c0.044,0,0.089,0,0.133,0v-1.864
			h-266.22v4.792c0.044,0,0.089,0,0.133,0c4.304,0,4.304,6.655,0,6.655c-0.044,0-0.089,0-0.133,0v4.881
			c4.082,0.133,4.082,6.478,0,6.655v5.812c3.683,0.444,3.683,6.167,0,6.611v7.188c9.54,1.775,16.949,10.294,16.949,20.277
			s-7.41,18.502-16.949,20.277v6.877c3.683,0.444,3.683,6.167,0,6.611v5.812c4.082,0.133,4.082,6.478,0,6.656v6.079
			c3.683,0.444,3.683,6.167,0,6.611v11.314H1.267v-12.823C-2.416,157.315-2.416,151.591,1.267,151.147z"/>
		<g>
			<linearGradient id="SVGID_2_" gradientUnits="userSpaceOnUse" x1="-222.491" y1="70.9928" x2="-213.4839" y2="70.9928">
				<stop  offset="0" style="stop-color:#00A9A9"/>
				<stop  offset="1" style="stop-color:#00A39F"/>
			</linearGradient>
			<path fill="url(#SVGID_2_)" d="M-215.037,69.107c0-0.044,0-0.089,0-0.133c0-0.044,0-0.044,0-0.089
				c0-0.133,0.044-0.266,0.133-0.355c0.089-0.089,0.177-0.133,0.311-0.133c0.089,0,0.222,0.044,0.311,0.133
				c0.089,0.089,0.133,0.177,0.177,0.355l0.577,2.041c0,0.044,0.044,0.089,0.044,0.133s0,0.089,0,0.133
				c0,0.089-0.044,0.177-0.133,0.222c-0.089,0.044-0.177,0.089-0.311,0.089h-7.587v1.109c0,0.399-0.044,0.666-0.089,0.799
				s-0.177,0.177-0.399,0.177c-0.177,0-0.311-0.044-0.355-0.133c-0.044-0.089-0.133-0.222-0.133-0.399V68.93
				c0-0.177,0.044-0.311,0.133-0.399c0.089-0.089,0.222-0.133,0.355-0.133c0.177,0,0.311,0.044,0.399,0.177
				c0.089,0.133,0.089,0.355,0.089,0.799v1.154h6.789L-215.037,69.107z"/>
			<linearGradient id="SVGID_3_" gradientUnits="userSpaceOnUse" x1="-222.6684" y1="79.2678" x2="-213.4395" y2="79.2678">
				<stop  offset="0" style="stop-color:#00A9A9"/>
				<stop  offset="1" style="stop-color:#00A39F"/>
			</linearGradient>
			<path fill="url(#SVGID_3_)" d="M-218.276,80.865c-0.311-0.266-0.577-0.532-0.71-0.843c-0.177-0.311-0.222-0.621-0.222-0.976
				c0-0.71,0.266-1.331,0.843-1.864c0.577-0.532,1.242-0.754,2.041-0.754c0.843,0,1.553,0.266,2.085,0.754
				c0.532,0.488,0.799,1.109,0.799,1.908c0,0.887-0.355,1.642-1.109,2.174s-1.686,0.843-2.884,0.843
				c-1.597,0-2.84-0.399-3.816-1.198c-0.932-0.799-1.42-1.908-1.42-3.239c0-0.444,0.044-0.71,0.089-0.843
				c0.044-0.133,0.177-0.222,0.355-0.222c0.311,0,0.444,0.266,0.444,0.843c0,0.355,0.044,0.666,0.089,0.887
				c0.133,0.71,0.488,1.331,1.109,1.775C-220.006,80.466-219.252,80.732-218.276,80.865z M-216.412,80.688
				c0.577,0,1.021-0.133,1.375-0.444c0.355-0.311,0.532-0.71,0.532-1.154s-0.177-0.799-0.488-1.109
				c-0.355-0.266-0.799-0.399-1.331-0.399c-0.577,0-1.021,0.133-1.375,0.444c-0.355,0.311-0.532,0.666-0.532,1.109
				c0,0.444,0.177,0.799,0.488,1.109C-217.388,80.555-216.945,80.688-216.412,80.688z"/>
			<linearGradient id="SVGID_4_" gradientUnits="userSpaceOnUse" x1="-222.7128" y1="87.7869" x2="-213.4839" y2="87.7869">
				<stop  offset="0" style="stop-color:#00A9A9"/>
				<stop  offset="1" style="stop-color:#00A39F"/>
			</linearGradient>
			<path fill="url(#SVGID_4_)" d="M-222.713,87.787c0-0.887,0.399-1.553,1.242-2.085s1.952-0.754,3.372-0.754
				c1.42,0,2.529,0.266,3.372,0.754c0.843,0.488,1.242,1.198,1.242,2.085s-0.399,1.553-1.242,2.085
				c-0.843,0.532-1.952,0.754-3.372,0.754c-1.42,0-2.529-0.266-3.372-0.754C-222.269,89.34-222.713,88.674-222.713,87.787z
				 M-214.504,87.787c0-0.532-0.311-0.932-0.932-1.242c-0.621-0.311-1.509-0.444-2.662-0.444c-1.154,0-2.041,0.133-2.662,0.444
				c-0.621,0.311-0.932,0.71-0.932,1.242s0.311,0.932,0.932,1.242c0.621,0.311,1.509,0.444,2.662,0.444
				c1.154,0,2.041-0.133,2.662-0.444C-214.815,88.763-214.504,88.319-214.504,87.787z"/>
			<linearGradient id="SVGID_5_" gradientUnits="userSpaceOnUse" x1="-222.6684" y1="96.3059" x2="-213.4395" y2="96.3059">
				<stop  offset="0" style="stop-color:#00A9A9"/>
				<stop  offset="1" style="stop-color:#00A39F"/>
			</linearGradient>
			<path fill="url(#SVGID_5_)" d="M-218.276,97.903c-0.311-0.266-0.577-0.532-0.71-0.843c-0.177-0.311-0.222-0.621-0.222-0.976
				c0-0.71,0.266-1.331,0.843-1.864s1.242-0.754,2.041-0.754c0.843,0,1.553,0.266,2.085,0.754c0.532,0.488,0.799,1.109,0.799,1.908
				c0,0.887-0.355,1.642-1.109,2.174c-0.754,0.532-1.686,0.843-2.884,0.843c-1.597,0-2.84-0.399-3.816-1.198
				c-0.932-0.799-1.42-1.908-1.42-3.239c0-0.444,0.044-0.71,0.089-0.843s0.177-0.222,0.355-0.222c0.311,0,0.444,0.266,0.444,0.843
				c0,0.355,0.044,0.666,0.089,0.887c0.133,0.71,0.488,1.331,1.109,1.775C-220.006,97.504-219.252,97.77-218.276,97.903z
				 M-216.412,97.77c0.577,0,1.021-0.133,1.375-0.444c0.355-0.311,0.532-0.71,0.532-1.154c0-0.444-0.177-0.799-0.488-1.109
				c-0.355-0.266-0.799-0.399-1.331-0.399c-0.577,0-1.021,0.133-1.375,0.444c-0.355,0.311-0.532,0.666-0.532,1.109
				c0,0.444,0.177,0.799,0.488,1.109C-217.388,97.593-216.945,97.77-216.412,97.77z"/>
			<linearGradient id="SVGID_6_" gradientUnits="userSpaceOnUse" x1="-222.5797" y1="104.5809" x2="-213.617" y2="104.5809">
				<stop  offset="0" style="stop-color:#00A9A9"/>
				<stop  offset="1" style="stop-color:#00A39F"/>
			</linearGradient>
			<path fill="url(#SVGID_6_)" d="M-222.491,102.429c0-0.266,0.044-0.444,0.133-0.532c0.089-0.089,0.266-0.177,0.444-0.177
				c0.311,0,0.843,0.444,1.686,1.331l0.177,0.222c0.133,0.133,0.311,0.311,0.532,0.577c1.509,1.597,2.618,2.396,3.283,2.396
				c0.488,0,0.887-0.133,1.198-0.444c0.311-0.266,0.444-0.666,0.444-1.109c0-0.311-0.044-0.577-0.177-0.843
				c-0.133-0.266-0.266-0.488-0.488-0.621c-0.044-0.044-0.089-0.089-0.177-0.133c-0.311-0.177-0.444-0.355-0.444-0.577
				c0-0.177,0.044-0.266,0.133-0.355c0.089-0.089,0.311-0.089,0.577-0.089c0.177,0,0.266,0,0.355,0.044s0.177,0.089,0.266,0.177
				c0.266,0.311,0.532,0.666,0.666,1.109c0.177,0.444,0.266,0.887,0.266,1.331c0,0.754-0.266,1.42-0.754,1.908
				c-0.488,0.532-1.109,0.754-1.819,0.754c-0.887,0-2.13-0.799-3.594-2.352c-0.355-0.399-0.666-0.71-0.887-0.932l-0.799-0.843v3.15
				c0.177,0,0.355,0.089,0.444,0.177c0.089,0.089,0.177,0.222,0.177,0.355s-0.044,0.266-0.133,0.355
				c-0.089,0.089-0.222,0.133-0.399,0.133c0,0-0.044,0-0.089,0c-0.044,0-0.044,0-0.089,0l-0.532-0.044
				c-0.133,0-0.266-0.044-0.355-0.133s-0.133-0.177-0.133-0.266v-4.57H-222.491z"/>
			<linearGradient id="SVGID_7_" gradientUnits="userSpaceOnUse" x1="-222.7128" y1="113.344" x2="-213.4839" y2="113.344">
				<stop  offset="0" style="stop-color:#00A9A9"/>
				<stop  offset="1" style="stop-color:#00A39F"/>
			</linearGradient>
			<path fill="url(#SVGID_7_)" d="M-222.713,113.344c0-0.887,0.399-1.553,1.242-2.085c0.843-0.532,1.952-0.754,3.372-0.754
				c1.42,0,2.529,0.266,3.372,0.754c0.843,0.488,1.242,1.198,1.242,2.085c0,0.887-0.399,1.553-1.242,2.085
				c-0.843,0.532-1.952,0.754-3.372,0.754c-1.42,0-2.529-0.266-3.372-0.754C-222.269,114.941-222.713,114.231-222.713,113.344z
				 M-214.504,113.344c0-0.532-0.311-0.932-0.932-1.242c-0.621-0.311-1.509-0.444-2.662-0.444c-1.154,0-2.041,0.133-2.662,0.444
				c-0.621,0.311-0.932,0.71-0.932,1.242c0,0.532,0.311,0.932,0.932,1.242c0.621,0.311,1.509,0.444,2.662,0.444
				c1.154,0,2.041-0.133,2.662-0.444C-214.815,114.32-214.504,113.921-214.504,113.344z"/>
			<linearGradient id="SVGID_8_" gradientUnits="userSpaceOnUse" x1="-222.491" y1="122.0849" x2="-213.4839" y2="122.0849">
				<stop  offset="0" style="stop-color:#00A9A9"/>
				<stop  offset="1" style="stop-color:#00A39F"/>
			</linearGradient>
			<path fill="url(#SVGID_8_)" d="M-215.037,120.221c0-0.044,0-0.089,0-0.133s0-0.044,0-0.089c0-0.133,0.044-0.266,0.133-0.355
				c0.089-0.089,0.177-0.133,0.311-0.133c0.089,0,0.222,0.044,0.311,0.133c0.089,0.089,0.133,0.177,0.177,0.355l0.577,2.041
				c0,0.044,0.044,0.089,0.044,0.133s0,0.089,0,0.133c0,0.089-0.044,0.177-0.133,0.222c-0.089,0.044-0.177,0.089-0.311,0.089h-7.587
				v1.109c0,0.399-0.044,0.666-0.089,0.799c-0.044,0.133-0.177,0.177-0.399,0.177c-0.177,0-0.311-0.044-0.355-0.133
				c-0.044-0.089-0.133-0.222-0.133-0.399v-4.171c0-0.177,0.044-0.311,0.133-0.399c0.089-0.089,0.222-0.133,0.355-0.133
				c0.177,0,0.311,0.044,0.399,0.177c0.089,0.133,0.089,0.355,0.089,0.799v1.154h6.789L-215.037,120.221z"/>
			<linearGradient id="SVGID_9_" gradientUnits="userSpaceOnUse" x1="-222.491" y1="130.6261" x2="-213.4839" y2="130.6261">
				<stop  offset="0" style="stop-color:#00A9A9"/>
				<stop  offset="1" style="stop-color:#00A39F"/>
			</linearGradient>
			<path fill="url(#SVGID_9_)" d="M-215.037,128.74c0-0.044,0-0.089,0-0.133s0-0.044,0-0.089c0-0.133,0.044-0.266,0.133-0.355
				c0.089-0.089,0.177-0.133,0.311-0.133c0.089,0,0.222,0.044,0.311,0.133c0.089,0.089,0.133,0.177,0.177,0.355l0.577,2.041
				c0,0.044,0.044,0.089,0.044,0.133s0,0.089,0,0.133c0,0.089-0.044,0.177-0.133,0.222c-0.089,0.044-0.177,0.089-0.311,0.089h-7.587
				v1.109c0,0.399-0.044,0.666-0.089,0.799c-0.044,0.133-0.177,0.177-0.399,0.177c-0.177,0-0.311-0.044-0.355-0.133
				c-0.044-0.089-0.133-0.222-0.133-0.399v-4.126c0-0.177,0.044-0.311,0.133-0.399c0.089-0.089,0.222-0.133,0.355-0.133
				c0.177,0,0.311,0.044,0.399,0.177s0.089,0.355,0.089,0.799v1.154h6.789L-215.037,128.74z"/>
		</g>
		<g>
			<linearGradient id="SVGID_10_" gradientUnits="userSpaceOnUse" x1="-50.0692" y1="130.1824" x2="-41.1508" y2="130.1824">
				<stop  offset="0" style="stop-color:#00A9A9"/>
				<stop  offset="1" style="stop-color:#00A39F"/>
			</linearGradient>
			<path fill="url(#SVGID_10_)" d="M-48.516,132.068c0,0.044,0,0.089,0,0.133s0,0.044,0,0.089c0,0.133-0.044,0.266-0.133,0.355
				c-0.089,0.089-0.177,0.133-0.311,0.133c-0.089,0-0.222-0.044-0.311-0.133c-0.089-0.089-0.133-0.177-0.177-0.355l-0.577-2.041
				c0-0.044-0.044-0.089-0.044-0.133s0-0.089,0-0.133c0-0.089,0.044-0.177,0.133-0.222c0.089-0.044,0.177-0.089,0.311-0.089h7.499
				v-1.109c0-0.399,0.044-0.666,0.089-0.799c0.089-0.089,0.177-0.177,0.399-0.177c0.177,0,0.311,0.044,0.355,0.133
				c0.044,0.089,0.133,0.222,0.133,0.399v4.126c0,0.177-0.044,0.311-0.133,0.399c-0.089,0.089-0.222,0.133-0.355,0.133
				c-0.177,0-0.311-0.044-0.399-0.177c-0.089-0.089-0.089-0.355-0.089-0.799v-1.154h-6.789L-48.516,132.068z"/>
			<linearGradient id="SVGID_11_" gradientUnits="userSpaceOnUse" x1="-50.0692" y1="121.9074" x2="-40.8402" y2="121.9074">
				<stop  offset="0" style="stop-color:#00A9A9"/>
				<stop  offset="1" style="stop-color:#00A39F"/>
			</linearGradient>
			<path fill="url(#SVGID_11_)" d="M-45.233,120.31c0.311,0.266,0.577,0.532,0.71,0.843c0.177,0.311,0.222,0.621,0.222,0.976
				c0,0.71-0.266,1.331-0.843,1.864c-0.532,0.532-1.242,0.754-2.041,0.754c-0.843,0-1.553-0.266-2.085-0.754
				c-0.532-0.488-0.799-1.109-0.799-1.908c0-0.887,0.355-1.642,1.109-2.174c0.71-0.577,1.686-0.843,2.884-0.843
				c1.597,0,2.84,0.399,3.816,1.198c0.932,0.799,1.42,1.908,1.42,3.239c0,0.444-0.044,0.71-0.089,0.843
				c-0.044,0.133-0.177,0.222-0.355,0.222c-0.311,0-0.444-0.266-0.444-0.843c0-0.355-0.044-0.666-0.089-0.887
				c-0.133-0.71-0.488-1.331-1.109-1.775C-43.502,120.709-44.301,120.443-45.233,120.31z M-47.096,120.443
				c-0.577,0-1.021,0.133-1.375,0.444c-0.355,0.311-0.532,0.71-0.532,1.154s0.177,0.799,0.488,1.109
				c0.355,0.266,0.799,0.399,1.331,0.399c0.577,0,1.021-0.133,1.375-0.444c0.355-0.311,0.532-0.666,0.532-1.109
				s-0.177-0.799-0.488-1.109C-46.165,120.621-46.608,120.443-47.096,120.443z"/>
			<linearGradient id="SVGID_12_" gradientUnits="userSpaceOnUse" x1="-50.0692" y1="113.3884" x2="-40.8402" y2="113.3884">
				<stop  offset="0" style="stop-color:#00A9A9"/>
				<stop  offset="1" style="stop-color:#00A39F"/>
			</linearGradient>
			<path fill="url(#SVGID_12_)" d="M-40.84,113.388c0,0.887-0.399,1.553-1.242,2.085c-0.843,0.532-1.952,0.754-3.372,0.754
				s-2.529-0.266-3.372-0.754c-0.843-0.488-1.242-1.198-1.242-2.085c0-0.887,0.399-1.553,1.242-2.085
				c0.843-0.532,1.952-0.754,3.372-0.754s2.529,0.266,3.372,0.754C-41.24,111.791-40.84,112.501-40.84,113.388z M-49.049,113.388
				c0,0.532,0.311,0.932,0.932,1.242c0.621,0.311,1.509,0.444,2.662,0.444c1.154,0,2.041-0.133,2.662-0.444
				c0.621-0.311,0.932-0.71,0.932-1.242c0-0.532-0.311-0.932-0.932-1.242c-0.621-0.311-1.509-0.444-2.662-0.444
				c-1.154,0-2.041,0.133-2.662,0.444C-48.738,112.412-49.049,112.856-49.049,113.388z"/>
			<linearGradient id="SVGID_13_" gradientUnits="userSpaceOnUse" x1="-49.8917" y1="104.8693" x2="-40.7515" y2="104.8693">
				<stop  offset="0" style="stop-color:#00A9A9"/>
				<stop  offset="1" style="stop-color:#00A39F"/>
			</linearGradient>
			<path fill="url(#SVGID_13_)" d="M-45.588,106.511c-0.311-0.266-0.577-0.532-0.71-0.843c-0.177-0.311-0.222-0.621-0.222-1.021
				c0-0.71,0.266-1.331,0.843-1.864c0.532-0.532,1.242-0.754,2.041-0.754c0.843,0,1.553,0.266,2.085,0.754
				c0.532,0.488,0.799,1.109,0.799,1.908c0,0.932-0.355,1.642-1.065,2.174s-1.686,0.843-2.884,0.843
				c-1.553,0-2.84-0.399-3.771-1.198c-0.976-0.799-1.42-1.864-1.42-3.195c0-0.444,0.044-0.754,0.089-0.887
				c0.044-0.133,0.177-0.222,0.355-0.222c0.311,0,0.444,0.266,0.444,0.799c0,0.355,0.044,0.666,0.089,0.887
				c0.133,0.71,0.488,1.331,1.109,1.775C-47.185,106.112-46.564,106.378-45.588,106.511z M-43.769,106.334
				c0.577,0,1.021-0.133,1.375-0.444c0.355-0.311,0.532-0.666,0.532-1.154c0-0.444-0.177-0.799-0.488-1.109
				c-0.355-0.266-0.799-0.444-1.331-0.444c-0.577,0-1.021,0.133-1.375,0.444c-0.355,0.311-0.532,0.666-0.532,1.154
				c0,0.444,0.177,0.799,0.488,1.109C-44.7,106.2-44.301,106.334-43.769,106.334z"/>
			<linearGradient id="SVGID_14_" gradientUnits="userSpaceOnUse" x1="-49.936" y1="96.5721" x2="-40.9733" y2="96.5721">
				<stop  offset="0" style="stop-color:#00A9A9"/>
				<stop  offset="1" style="stop-color:#00A39F"/>
			</linearGradient>
			<path fill="url(#SVGID_14_)" d="M-41.062,98.746c0,0.266-0.044,0.444-0.133,0.532c-0.089,0.133-0.266,0.177-0.444,0.177
				c-0.311,0-0.843-0.444-1.686-1.331l-0.177-0.222c-0.133-0.133-0.311-0.311-0.532-0.577c-1.509-1.597-2.618-2.396-3.283-2.396
				c-0.488,0-0.887,0.133-1.198,0.444c-0.311,0.266-0.444,0.666-0.444,1.109c0,0.311,0.044,0.577,0.177,0.843
				c0.133,0.266,0.266,0.488,0.488,0.621c0.044,0.044,0.089,0.089,0.177,0.133c0.311,0.177,0.444,0.355,0.444,0.577
				c0,0.177-0.044,0.266-0.133,0.355c-0.089,0.089-0.311,0.089-0.577,0.089c-0.177,0-0.266,0-0.355-0.044
				c-0.089-0.044-0.177-0.089-0.266-0.177c-0.266-0.311-0.532-0.666-0.666-1.109c-0.177-0.444-0.266-0.887-0.266-1.331
				c0-0.754,0.266-1.42,0.754-1.908c0.488-0.532,1.109-0.754,1.819-0.754c0.887,0,2.13,0.799,3.594,2.352
				c0.355,0.399,0.666,0.71,0.887,0.932l0.799,0.843v-3.195c-0.177,0-0.355-0.089-0.444-0.177s-0.177-0.222-0.177-0.355
				s0.044-0.266,0.133-0.355c0.089-0.089,0.222-0.133,0.399-0.133c0,0,0.044,0,0.089,0c0.044,0,0.044,0,0.089,0l0.532,0.044
				c0.133,0,0.266,0.044,0.355,0.133c0.089,0.089,0.133,0.177,0.133,0.266v4.614H-41.062z"/>
			<linearGradient id="SVGID_15_" gradientUnits="userSpaceOnUse" x1="-50.0692" y1="87.7869" x2="-40.8402" y2="87.7869">
				<stop  offset="0" style="stop-color:#00A9A9"/>
				<stop  offset="1" style="stop-color:#00A39F"/>
			</linearGradient>
			<path fill="url(#SVGID_15_)" d="M-40.84,87.787c0,0.887-0.399,1.553-1.242,2.085c-0.843,0.532-1.952,0.754-3.372,0.754
				s-2.529-0.266-3.372-0.754c-0.843-0.488-1.242-1.198-1.242-2.085s0.399-1.553,1.242-2.085c0.843-0.532,1.952-0.754,3.372-0.754
				s2.529,0.266,3.372,0.754C-41.24,86.19-40.84,86.944-40.84,87.787z M-49.049,87.787c0,0.532,0.311,0.932,0.932,1.242
				s1.509,0.444,2.662,0.444c1.154,0,2.041-0.133,2.662-0.444c0.621-0.311,0.932-0.71,0.932-1.242s-0.311-0.932-0.932-1.242
				c-0.621-0.311-1.509-0.444-2.662-0.444c-1.154,0-2.041,0.133-2.662,0.444C-48.738,86.855-49.049,87.254-49.049,87.787z"/>
			<linearGradient id="SVGID_16_" gradientUnits="userSpaceOnUse" x1="-50.0692" y1="79.0682" x2="-41.1508" y2="79.0682">
				<stop  offset="0" style="stop-color:#00A9A9"/>
				<stop  offset="1" style="stop-color:#00A39F"/>
			</linearGradient>
			<path fill="url(#SVGID_16_)" d="M-48.516,80.954c0,0.044,0,0.089,0,0.133c0,0.044,0,0.044,0,0.089
				c0,0.133-0.044,0.266-0.133,0.355c-0.089,0.089-0.177,0.133-0.311,0.133c-0.089,0-0.222-0.044-0.311-0.133
				c-0.089-0.089-0.133-0.177-0.177-0.355l-0.577-2.041c0-0.044-0.044-0.089-0.044-0.133s0-0.089,0-0.133
				c0-0.089,0.044-0.177,0.133-0.222c0.089-0.044,0.177-0.089,0.311-0.089h7.499v-1.109c0-0.399,0.044-0.666,0.089-0.799
				c0.089-0.089,0.177-0.177,0.399-0.177c0.177,0,0.311,0.044,0.355,0.133c0.044,0.089,0.133,0.222,0.133,0.399v4.126
				c0,0.177-0.044,0.311-0.133,0.399c-0.089,0.089-0.222,0.133-0.355,0.133c-0.177,0-0.311-0.044-0.399-0.177
				c-0.089-0.089-0.089-0.355-0.089-0.799v-1.065h-6.789L-48.516,80.954z"/>
			<linearGradient id="SVGID_17_" gradientUnits="userSpaceOnUse" x1="-50.0248" y1="70.9263" x2="-41.0621" y2="70.9263">
				<stop  offset="0" style="stop-color:#00A9A9"/>
				<stop  offset="1" style="stop-color:#00A39F"/>
			</linearGradient>
			<path fill="url(#SVGID_17_)" d="M-41.062,70.926c0,0.222-0.044,0.355-0.089,0.444c-0.089,0.089-0.222,0.133-0.399,0.133
				c-0.177,0-0.266-0.044-0.355-0.133c-0.089-0.089-0.133-0.222-0.133-0.399v-0.799h-1.154v3.239c0,0.133-0.044,0.222-0.089,0.266
				c-0.089,0.044-0.177,0.089-0.311,0.089h-0.488c-0.177,0-0.399-0.089-0.577-0.222C-44.7,73.5-44.745,73.5-44.745,73.5
				l-5.014-2.884c-0.133-0.044-0.177-0.133-0.222-0.177s-0.044-0.089-0.044-0.177c0-0.044,0-0.089,0-0.133v-0.044l0.089-0.71
				c0-0.044,0.044-0.133,0.089-0.177c0.044-0.044,0.133-0.044,0.266-0.044h5.28v-0.355c0-0.089-0.044-0.177-0.133-0.222
				c-0.089-0.044-0.133-0.133-0.133-0.177c0-0.089,0.044-0.177,0.089-0.222c0.044-0.044,0.133-0.089,0.266-0.089
				c0.044,0,0.089,0,0.133,0c0.044,0,0.089,0,0.089,0.044l0.266,0.044c0.177,0.044,0.266,0.089,0.355,0.133
				c0.044,0.044,0.089,0.177,0.089,0.311v0.577h1.154v-0.222c0-0.311,0.044-0.488,0.089-0.621c0.089-0.089,0.177-0.177,0.355-0.177
				c0.177,0,0.311,0.044,0.355,0.133c0.089,0.089,0.133,0.222,0.133,0.399v2.219H-41.062z M-44.257,70.172h-4.703l4.703,2.618
				V70.172z"/>
		</g>
	</g>
	<g id="Laag_3" display="inline">
		<path fill="none" stroke="#FFFFFF" stroke-width="3.1305" stroke-miterlimit="10" d="M-31.789,145.956
			c0,2.928-2.396,5.324-5.324,5.324h-191.235c-2.928,0-5.324-2.396-5.324-5.324v-88.74c0-2.928,2.396-5.324,5.324-5.324h191.235
			c2.928,0,5.324,2.396,5.324,5.324V145.956z"/>
		
			<line fill="none" stroke="#FFFFFF" stroke-width="2.6833" stroke-miterlimit="10" x1="-202.835" y1="52.113" x2="-202.835" y2="151.502"/>
		
			<line fill="none" stroke="#FFFFFF" stroke-width="2.6833" stroke-miterlimit="10" x1="-59.964" y1="52.113" x2="-59.964" y2="151.502"/>
		<rect x="-237.953" y="88.971" fill="none" width="214" height="35.5"/>
		<text transform="matrix(1 0 0 1 -179.2143 116.2711)" fill="#FFFFFF" font-family="'BebasNeue'" font-size="39">KERM.IS</text>
		<line fill="none" stroke="#FFFFFF" stroke-miterlimit="10" x1="-193.738" y1="77.141" x2="-69.453" y2="77.141"/>
		<line fill="none" stroke="#FFFFFF" stroke-miterlimit="10" x1="-193.738" y1="129.141" x2="-69.453" y2="129.141"/>
	</g>
</g>
</svg>
