<?xml version="1.0" encoding="utf-8"?>
<!-- Generator: Adobe Illustrator 17.0.0, SVG Export Plug-In . SVG Version: 6.00 Build 0)  -->
<!DOCTYPE svg PUBLIC "-//W3C//DTD SVG 1.1//EN" "http://www.w3.org/Graphics/SVG/1.1/DTD/svg11.dtd">
<svg version="1.1" id="Layer_1" xmlns="http://www.w3.org/2000/svg" xmlns:xlink="http://www.w3.org/1999/xlink" x="0px" y="0px"
	 width="595.28px" height="841.89px" viewBox="0 0 595.28 841.89" enable-background="new 0 0 595.28 841.89" xml:space="preserve">
<g id="Laag_2">
	<linearGradient id="SVGID_1_" gradientUnits="userSpaceOnUse" x1="274.61" y1="362.9561" x2="274.61" y2="494.9726">
		<stop  offset="0.5" style="stop-color:#00A9A9"/>
		<stop  offset="0.5" style="stop-color:#00A39F"/>
	</linearGradient>
	<path fill="url(#SVGID_1_)" d="M407.72,475.006v-7.01c-3.683-0.444-3.683-6.167,0-6.611v-6.434c-3.683-0.444-3.683-6.167,0-6.611
		v-6.656c-10.249-1.154-18.414-10.028-18.414-20.499s8.164-19.39,18.414-20.499v-5.458c-3.683-0.444-3.683-6.167,0-6.611v-6.656
		c-4.082-0.133-4.082-6.478,0-6.655v-5.458c-0.044,0-0.089,0-0.133,0c-4.304,0-4.304-6.655,0-6.655c0.044,0,0.089,0,0.133,0v-1.864
		H141.5v4.792c0.044,0,0.089,0,0.133,0c4.304,0,4.304,6.656,0,6.656c-0.044,0-0.089,0-0.133,0v4.881
		c4.082,0.133,4.082,6.478,0,6.656v5.812c3.683,0.444,3.683,6.167,0,6.611v7.188c9.54,1.775,16.949,10.294,16.949,20.277
		s-7.41,18.502-16.949,20.277v6.877c3.683,0.444,3.683,6.167,0,6.611v5.812c4.082,0.133,4.082,6.478,0,6.656v6.079
		c3.683,0.444,3.683,6.167,0,6.611v11.314h266.22v-12.823C404.037,481.174,404.037,475.45,407.72,475.006z"/>
	<g>
		<linearGradient id="SVGID_2_" gradientUnits="userSpaceOnUse" x1="183.9621" y1="394.8519" x2="192.9692" y2="394.8519">
			<stop  offset="0" style="stop-color:#00A9A9"/>
			<stop  offset="1" style="stop-color:#00A39F"/>
		</linearGradient>
		<path fill="url(#SVGID_2_)" d="M191.416,392.966c0-0.044,0-0.089,0-0.133s0-0.044,0-0.089c0-0.133,0.044-0.266,0.133-0.355
			c0.089-0.089,0.177-0.133,0.311-0.133c0.089,0,0.222,0.044,0.311,0.133c0.089,0.089,0.133,0.177,0.177,0.355l0.577,2.041
			c0,0.044,0.044,0.089,0.044,0.133s0,0.089,0,0.133c0,0.089-0.044,0.177-0.133,0.222c-0.089,0.044-0.177,0.089-0.311,0.089h-7.587
			v1.109c0,0.399-0.044,0.666-0.089,0.799c-0.044,0.133-0.177,0.177-0.399,0.177c-0.177,0-0.311-0.044-0.355-0.133
			s-0.133-0.222-0.133-0.399v-4.126c0-0.177,0.044-0.311,0.133-0.399c0.089-0.089,0.222-0.133,0.355-0.133
			c0.177,0,0.311,0.044,0.399,0.177c0.089,0.133,0.089,0.355,0.089,0.799v1.154h6.789L191.416,392.966z"/>
		<linearGradient id="SVGID_3_" gradientUnits="userSpaceOnUse" x1="183.7846" y1="403.1269" x2="193.0136" y2="403.1269">
			<stop  offset="0" style="stop-color:#00A9A9"/>
			<stop  offset="1" style="stop-color:#00A39F"/>
		</linearGradient>
		<path fill="url(#SVGID_3_)" d="M188.177,404.724c-0.311-0.266-0.577-0.532-0.71-0.843c-0.177-0.311-0.222-0.621-0.222-0.976
			c0-0.71,0.266-1.331,0.843-1.864c0.577-0.532,1.242-0.754,2.041-0.754c0.843,0,1.553,0.266,2.085,0.754s0.799,1.109,0.799,1.908
			c0,0.887-0.355,1.642-1.109,2.174c-0.754,0.532-1.686,0.843-2.884,0.843c-1.597,0-2.84-0.399-3.816-1.198
			c-0.932-0.799-1.42-1.908-1.42-3.239c0-0.444,0.044-0.71,0.089-0.843c0.044-0.133,0.177-0.222,0.355-0.222
			c0.311,0,0.444,0.266,0.444,0.843c0,0.355,0.044,0.666,0.089,0.887c0.133,0.71,0.488,1.331,1.109,1.775
			C186.447,404.325,187.201,404.591,188.177,404.724z M190.041,404.547c0.577,0,1.021-0.133,1.375-0.444
			c0.355-0.311,0.532-0.71,0.532-1.154c0-0.444-0.177-0.799-0.488-1.109c-0.355-0.266-0.799-0.399-1.331-0.399
			c-0.577,0-1.021,0.133-1.375,0.444c-0.355,0.311-0.532,0.666-0.532,1.109c0,0.444,0.177,0.799,0.488,1.109
			C189.065,404.414,189.508,404.547,190.041,404.547z"/>
		<linearGradient id="SVGID_4_" gradientUnits="userSpaceOnUse" x1="183.7402" y1="411.6459" x2="192.9692" y2="411.6459">
			<stop  offset="0" style="stop-color:#00A9A9"/>
			<stop  offset="1" style="stop-color:#00A39F"/>
		</linearGradient>
		<path fill="url(#SVGID_4_)" d="M183.74,411.646c0-0.887,0.399-1.553,1.242-2.085s1.952-0.754,3.372-0.754
			c1.42,0,2.529,0.266,3.372,0.754c0.843,0.488,1.242,1.198,1.242,2.085s-0.399,1.553-1.242,2.085
			c-0.843,0.532-1.952,0.754-3.372,0.754c-1.42,0-2.529-0.266-3.372-0.754C184.184,413.199,183.74,412.533,183.74,411.646z
			 M191.949,411.646c0-0.532-0.311-0.932-0.932-1.242c-0.621-0.311-1.509-0.444-2.662-0.444c-1.154,0-2.041,0.133-2.662,0.444
			c-0.621,0.311-0.932,0.71-0.932,1.242s0.311,0.932,0.932,1.242c0.621,0.311,1.509,0.444,2.662,0.444
			c1.154,0,2.041-0.133,2.662-0.444C191.638,412.622,191.949,412.178,191.949,411.646z"/>
		<linearGradient id="SVGID_5_" gradientUnits="userSpaceOnUse" x1="183.7846" y1="420.165" x2="193.0136" y2="420.165">
			<stop  offset="0" style="stop-color:#00A9A9"/>
			<stop  offset="1" style="stop-color:#00A39F"/>
		</linearGradient>
		<path fill="url(#SVGID_5_)" d="M188.177,421.762c-0.311-0.266-0.577-0.532-0.71-0.843c-0.177-0.311-0.222-0.621-0.222-0.976
			c0-0.71,0.266-1.331,0.843-1.864c0.577-0.532,1.242-0.754,2.041-0.754c0.843,0,1.553,0.266,2.085,0.754s0.799,1.109,0.799,1.908
			c0,0.887-0.355,1.642-1.109,2.174s-1.686,0.843-2.884,0.843c-1.597,0-2.84-0.399-3.816-1.198c-0.932-0.799-1.42-1.908-1.42-3.239
			c0-0.444,0.044-0.71,0.089-0.843c0.044-0.133,0.177-0.222,0.355-0.222c0.311,0,0.444,0.266,0.444,0.843
			c0,0.355,0.044,0.666,0.089,0.887c0.133,0.71,0.488,1.331,1.109,1.775C186.447,421.363,187.201,421.629,188.177,421.762z
			 M190.041,421.629c0.577,0,1.021-0.133,1.375-0.444c0.355-0.311,0.532-0.71,0.532-1.154s-0.177-0.799-0.488-1.109
			c-0.355-0.266-0.799-0.399-1.331-0.399c-0.577,0-1.021,0.133-1.375,0.444s-0.532,0.666-0.532,1.109s0.177,0.799,0.488,1.109
			C189.065,421.452,189.508,421.629,190.041,421.629z"/>
		<linearGradient id="SVGID_6_" gradientUnits="userSpaceOnUse" x1="183.8734" y1="428.44" x2="192.8361" y2="428.44">
			<stop  offset="0" style="stop-color:#00A9A9"/>
			<stop  offset="1" style="stop-color:#00A39F"/>
		</linearGradient>
		<path fill="url(#SVGID_6_)" d="M183.962,426.288c0-0.266,0.044-0.444,0.133-0.532c0.089-0.089,0.266-0.177,0.444-0.177
			c0.311,0,0.843,0.444,1.686,1.331l0.177,0.222c0.133,0.133,0.311,0.311,0.532,0.577c1.509,1.597,2.618,2.396,3.283,2.396
			c0.488,0,0.887-0.133,1.198-0.444c0.311-0.266,0.444-0.666,0.444-1.109c0-0.311-0.044-0.577-0.177-0.843
			c-0.133-0.266-0.266-0.488-0.488-0.621c-0.044-0.044-0.089-0.089-0.177-0.133c-0.311-0.177-0.444-0.355-0.444-0.577
			c0-0.177,0.044-0.266,0.133-0.355c0.089-0.089,0.311-0.089,0.577-0.089c0.177,0,0.266,0,0.355,0.044s0.177,0.089,0.266,0.177
			c0.266,0.311,0.532,0.666,0.666,1.109c0.177,0.444,0.266,0.887,0.266,1.331c0,0.754-0.266,1.42-0.754,1.908
			c-0.488,0.532-1.109,0.754-1.819,0.754c-0.887,0-2.13-0.799-3.594-2.352c-0.355-0.399-0.666-0.71-0.887-0.932l-0.799-0.843v3.15
			c0.177,0,0.355,0.089,0.444,0.177c0.089,0.089,0.177,0.222,0.177,0.355s-0.044,0.266-0.133,0.355
			c-0.089,0.089-0.222,0.133-0.399,0.133c0,0-0.044,0-0.089,0c-0.044,0-0.044,0-0.089,0l-0.532-0.044
			c-0.133,0-0.266-0.044-0.355-0.133s-0.133-0.177-0.133-0.266v-4.57H183.962z"/>
		<linearGradient id="SVGID_7_" gradientUnits="userSpaceOnUse" x1="183.7402" y1="437.2031" x2="192.9692" y2="437.2031">
			<stop  offset="0" style="stop-color:#00A9A9"/>
			<stop  offset="1" style="stop-color:#00A39F"/>
		</linearGradient>
		<path fill="url(#SVGID_7_)" d="M183.74,437.203c0-0.887,0.399-1.553,1.242-2.085s1.952-0.754,3.372-0.754
			c1.42,0,2.529,0.266,3.372,0.754c0.843,0.488,1.242,1.198,1.242,2.085c0,0.887-0.399,1.553-1.242,2.085
			c-0.843,0.532-1.952,0.754-3.372,0.754c-1.42,0-2.529-0.266-3.372-0.754C184.184,438.8,183.74,438.09,183.74,437.203z
			 M191.949,437.203c0-0.532-0.311-0.932-0.932-1.242c-0.621-0.311-1.509-0.444-2.662-0.444c-1.154,0-2.041,0.133-2.662,0.444
			c-0.621,0.311-0.932,0.71-0.932,1.242s0.311,0.932,0.932,1.242c0.621,0.311,1.509,0.444,2.662,0.444
			c1.154,0,2.041-0.133,2.662-0.444C191.638,438.179,191.949,437.78,191.949,437.203z"/>
		<linearGradient id="SVGID_8_" gradientUnits="userSpaceOnUse" x1="183.9621" y1="445.9439" x2="192.9692" y2="445.9439">
			<stop  offset="0" style="stop-color:#00A9A9"/>
			<stop  offset="1" style="stop-color:#00A39F"/>
		</linearGradient>
		<path fill="url(#SVGID_8_)" d="M191.416,444.08c0-0.044,0-0.089,0-0.133s0-0.044,0-0.089c0-0.133,0.044-0.266,0.133-0.355
			c0.089-0.089,0.177-0.133,0.311-0.133c0.089,0,0.222,0.044,0.311,0.133c0.089,0.089,0.133,0.177,0.177,0.355l0.577,2.041
			c0,0.044,0.044,0.089,0.044,0.133s0,0.089,0,0.133c0,0.089-0.044,0.177-0.133,0.222c-0.089,0.044-0.177,0.089-0.311,0.089h-7.587
			v1.109c0,0.399-0.044,0.666-0.089,0.799c-0.044,0.133-0.177,0.177-0.399,0.177c-0.177,0-0.311-0.044-0.355-0.133
			c-0.044-0.089-0.133-0.222-0.133-0.399v-4.171c0-0.177,0.044-0.311,0.133-0.399c0.089-0.089,0.222-0.133,0.355-0.133
			c0.177,0,0.311,0.044,0.399,0.177c0.089,0.133,0.089,0.355,0.089,0.799v1.154h6.789L191.416,444.08z"/>
		<linearGradient id="SVGID_9_" gradientUnits="userSpaceOnUse" x1="183.9621" y1="454.4852" x2="192.9692" y2="454.4852">
			<stop  offset="0" style="stop-color:#00A9A9"/>
			<stop  offset="1" style="stop-color:#00A39F"/>
		</linearGradient>
		<path fill="url(#SVGID_9_)" d="M191.416,452.599c0-0.044,0-0.089,0-0.133s0-0.044,0-0.089c0-0.133,0.044-0.266,0.133-0.355
			c0.089-0.089,0.177-0.133,0.311-0.133c0.089,0,0.222,0.044,0.311,0.133c0.089,0.089,0.133,0.177,0.177,0.355l0.577,2.041
			c0,0.044,0.044,0.089,0.044,0.133s0,0.089,0,0.133c0,0.089-0.044,0.177-0.133,0.222c-0.089,0.044-0.177,0.089-0.311,0.089h-7.587
			v1.109c0,0.399-0.044,0.666-0.089,0.799c-0.044,0.133-0.177,0.177-0.399,0.177c-0.177,0-0.311-0.044-0.355-0.133
			s-0.133-0.222-0.133-0.399v-4.126c0-0.177,0.044-0.311,0.133-0.399c0.089-0.089,0.222-0.133,0.355-0.133
			c0.177,0,0.311,0.044,0.399,0.177c0.089,0.133,0.089,0.355,0.089,0.799v1.154h6.789L191.416,452.599z"/>
	</g>
	<g>
		<linearGradient id="SVGID_10_" gradientUnits="userSpaceOnUse" x1="356.3839" y1="454.0415" x2="365.3022" y2="454.0415">
			<stop  offset="0" style="stop-color:#00A9A9"/>
			<stop  offset="1" style="stop-color:#00A39F"/>
		</linearGradient>
		<path fill="url(#SVGID_10_)" d="M357.937,455.927c0,0.044,0,0.089,0,0.133s0,0.044,0,0.089c0,0.133-0.044,0.266-0.133,0.355
			s-0.177,0.133-0.311,0.133c-0.089,0-0.222-0.044-0.311-0.133s-0.133-0.177-0.177-0.355l-0.577-2.041
			c0-0.044-0.044-0.089-0.044-0.133s0-0.089,0-0.133c0-0.089,0.044-0.177,0.133-0.222s0.177-0.089,0.311-0.089h7.499v-1.109
			c0-0.399,0.044-0.666,0.089-0.799c0.089-0.089,0.177-0.177,0.399-0.177c0.177,0,0.311,0.044,0.355,0.133
			c0.044,0.089,0.133,0.222,0.133,0.399v4.126c0,0.177-0.044,0.311-0.133,0.399s-0.222,0.133-0.355,0.133
			c-0.177,0-0.311-0.044-0.399-0.177c-0.089-0.089-0.089-0.355-0.089-0.799v-1.154h-6.789L357.937,455.927z"/>
		<linearGradient id="SVGID_11_" gradientUnits="userSpaceOnUse" x1="356.3839" y1="445.7664" x2="365.6129" y2="445.7664">
			<stop  offset="0" style="stop-color:#00A9A9"/>
			<stop  offset="1" style="stop-color:#00A39F"/>
		</linearGradient>
		<path fill="url(#SVGID_11_)" d="M361.22,444.169c0.311,0.266,0.577,0.532,0.71,0.843c0.177,0.311,0.222,0.621,0.222,0.976
			c0,0.71-0.266,1.331-0.843,1.864c-0.532,0.532-1.242,0.754-2.041,0.754c-0.843,0-1.553-0.266-2.085-0.754
			s-0.799-1.109-0.799-1.908c0-0.887,0.355-1.642,1.109-2.174c0.71-0.577,1.686-0.843,2.884-0.843c1.597,0,2.84,0.399,3.816,1.198
			c0.932,0.799,1.42,1.908,1.42,3.239c0,0.444-0.044,0.71-0.089,0.843c-0.044,0.133-0.177,0.222-0.355,0.222
			c-0.311,0-0.444-0.266-0.444-0.843c0-0.355-0.044-0.666-0.089-0.887c-0.133-0.71-0.488-1.331-1.109-1.775
			C362.951,444.568,362.152,444.302,361.22,444.169z M359.357,444.302c-0.577,0-1.021,0.133-1.375,0.444
			c-0.355,0.311-0.532,0.71-0.532,1.154s0.177,0.799,0.488,1.109c0.355,0.266,0.799,0.399,1.331,0.399
			c0.577,0,1.02-0.133,1.375-0.444c0.355-0.311,0.532-0.666,0.532-1.109s-0.177-0.799-0.488-1.109
			C360.288,444.48,359.845,444.302,359.357,444.302z"/>
		<linearGradient id="SVGID_12_" gradientUnits="userSpaceOnUse" x1="356.3839" y1="437.2474" x2="365.6129" y2="437.2474">
			<stop  offset="0" style="stop-color:#00A9A9"/>
			<stop  offset="1" style="stop-color:#00A39F"/>
		</linearGradient>
		<path fill="url(#SVGID_12_)" d="M365.613,437.247c0,0.887-0.399,1.553-1.242,2.085c-0.843,0.532-1.952,0.754-3.372,0.754
			c-1.42,0-2.529-0.266-3.372-0.754s-1.242-1.198-1.242-2.085c0-0.887,0.399-1.553,1.242-2.085s1.952-0.754,3.372-0.754
			c1.42,0,2.529,0.266,3.372,0.754C365.214,435.65,365.613,436.36,365.613,437.247z M357.404,437.247
			c0,0.532,0.311,0.932,0.932,1.242c0.621,0.311,1.509,0.444,2.662,0.444s2.041-0.133,2.662-0.444
			c0.621-0.311,0.932-0.71,0.932-1.242s-0.311-0.932-0.932-1.242c-0.621-0.311-1.509-0.444-2.662-0.444s-2.041,0.133-2.662,0.444
			C357.715,436.271,357.404,436.715,357.404,437.247z"/>
		<linearGradient id="SVGID_13_" gradientUnits="userSpaceOnUse" x1="356.5614" y1="428.7284" x2="365.7016" y2="428.7284">
			<stop  offset="0" style="stop-color:#00A9A9"/>
			<stop  offset="1" style="stop-color:#00A39F"/>
		</linearGradient>
		<path fill="url(#SVGID_13_)" d="M360.865,430.37c-0.311-0.266-0.577-0.532-0.71-0.843c-0.177-0.311-0.222-0.621-0.222-1.021
			c0-0.71,0.266-1.331,0.843-1.864c0.532-0.532,1.242-0.754,2.041-0.754c0.843,0,1.553,0.266,2.085,0.754s0.799,1.109,0.799,1.908
			c0,0.932-0.355,1.642-1.065,2.174c-0.71,0.532-1.686,0.843-2.884,0.843c-1.553,0-2.84-0.399-3.771-1.198
			c-0.976-0.799-1.42-1.864-1.42-3.195c0-0.444,0.044-0.754,0.089-0.887c0.044-0.133,0.177-0.222,0.355-0.222
			c0.311,0,0.444,0.266,0.444,0.799c0,0.355,0.044,0.666,0.089,0.887c0.133,0.71,0.488,1.331,1.109,1.775
			S359.889,430.237,360.865,430.37z M362.684,430.193c0.577,0,1.021-0.133,1.375-0.444c0.355-0.311,0.532-0.666,0.532-1.154
			c0-0.444-0.177-0.799-0.488-1.109c-0.355-0.266-0.799-0.444-1.331-0.444c-0.577,0-1.021,0.133-1.375,0.444
			c-0.355,0.311-0.532,0.666-0.532,1.154c0,0.444,0.177,0.799,0.488,1.109C361.753,430.059,362.152,430.193,362.684,430.193z"/>
		<linearGradient id="SVGID_14_" gradientUnits="userSpaceOnUse" x1="356.517" y1="420.4312" x2="365.4798" y2="420.4312">
			<stop  offset="0" style="stop-color:#00A9A9"/>
			<stop  offset="1" style="stop-color:#00A39F"/>
		</linearGradient>
		<path fill="url(#SVGID_14_)" d="M365.391,422.605c0,0.266-0.044,0.444-0.133,0.532c-0.089,0.133-0.266,0.177-0.444,0.177
			c-0.311,0-0.843-0.444-1.686-1.331l-0.177-0.222c-0.133-0.133-0.311-0.311-0.532-0.577c-1.509-1.597-2.618-2.396-3.283-2.396
			c-0.488,0-0.887,0.133-1.198,0.444c-0.311,0.266-0.444,0.666-0.444,1.109c0,0.311,0.044,0.577,0.177,0.843
			c0.133,0.266,0.266,0.488,0.488,0.621c0.044,0.044,0.089,0.089,0.177,0.133c0.311,0.177,0.444,0.355,0.444,0.577
			c0,0.177-0.044,0.266-0.133,0.355c-0.089,0.089-0.311,0.089-0.577,0.089c-0.177,0-0.266,0-0.355-0.044
			c-0.089-0.044-0.177-0.089-0.266-0.177c-0.266-0.311-0.532-0.666-0.666-1.109c-0.177-0.444-0.266-0.887-0.266-1.331
			c0-0.754,0.266-1.42,0.754-1.908c0.488-0.532,1.109-0.754,1.819-0.754c0.887,0,2.13,0.799,3.594,2.352
			c0.355,0.399,0.666,0.71,0.887,0.932l0.799,0.843v-3.195c-0.177,0-0.355-0.089-0.444-0.177c-0.089-0.089-0.177-0.222-0.177-0.355
			s0.044-0.266,0.133-0.355c0.089-0.089,0.222-0.133,0.399-0.133c0,0,0.044,0,0.089,0s0.044,0,0.089,0l0.532,0.044
			c0.133,0,0.266,0.044,0.355,0.133c0.089,0.089,0.133,0.177,0.133,0.266v4.614H365.391z"/>
		<linearGradient id="SVGID_15_" gradientUnits="userSpaceOnUse" x1="356.3839" y1="411.6459" x2="365.6129" y2="411.6459">
			<stop  offset="0" style="stop-color:#00A9A9"/>
			<stop  offset="1" style="stop-color:#00A39F"/>
		</linearGradient>
		<path fill="url(#SVGID_15_)" d="M365.613,411.646c0,0.887-0.399,1.553-1.242,2.085c-0.843,0.532-1.952,0.754-3.372,0.754
			c-1.42,0-2.529-0.266-3.372-0.754s-1.242-1.198-1.242-2.085s0.399-1.553,1.242-2.085s1.952-0.754,3.372-0.754
			c1.42,0,2.529,0.266,3.372,0.754C365.214,410.049,365.613,410.803,365.613,411.646z M357.404,411.646
			c0,0.532,0.311,0.932,0.932,1.242c0.621,0.311,1.509,0.444,2.662,0.444s2.041-0.133,2.662-0.444
			c0.621-0.311,0.932-0.71,0.932-1.242s-0.311-0.932-0.932-1.242c-0.621-0.311-1.509-0.444-2.662-0.444s-2.041,0.133-2.662,0.444
			C357.715,410.714,357.404,411.113,357.404,411.646z"/>
		<linearGradient id="SVGID_16_" gradientUnits="userSpaceOnUse" x1="356.3839" y1="402.9272" x2="365.3022" y2="402.9272">
			<stop  offset="0" style="stop-color:#00A9A9"/>
			<stop  offset="1" style="stop-color:#00A39F"/>
		</linearGradient>
		<path fill="url(#SVGID_16_)" d="M357.937,404.813c0,0.044,0,0.089,0,0.133s0,0.044,0,0.089c0,0.133-0.044,0.266-0.133,0.355
			s-0.177,0.133-0.311,0.133c-0.089,0-0.222-0.044-0.311-0.133s-0.133-0.177-0.177-0.355l-0.577-2.041
			c0-0.044-0.044-0.089-0.044-0.133s0-0.089,0-0.133c0-0.089,0.044-0.177,0.133-0.222s0.177-0.089,0.311-0.089h7.499v-1.109
			c0-0.399,0.044-0.666,0.089-0.799c0.089-0.089,0.177-0.177,0.399-0.177c0.177,0,0.311,0.044,0.355,0.133
			c0.044,0.089,0.133,0.222,0.133,0.399v4.126c0,0.177-0.044,0.311-0.133,0.399s-0.222,0.133-0.355,0.133
			c-0.177,0-0.311-0.044-0.399-0.177c-0.089-0.089-0.089-0.355-0.089-0.799v-1.065h-6.789L357.937,404.813z"/>
		<linearGradient id="SVGID_17_" gradientUnits="userSpaceOnUse" x1="356.4283" y1="394.7853" x2="365.391" y2="394.7853">
			<stop  offset="0" style="stop-color:#00A9A9"/>
			<stop  offset="1" style="stop-color:#00A39F"/>
		</linearGradient>
		<path fill="url(#SVGID_17_)" d="M365.391,394.785c0,0.222-0.044,0.355-0.089,0.444c-0.089,0.089-0.222,0.133-0.399,0.133
			s-0.266-0.044-0.355-0.133c-0.089-0.089-0.133-0.222-0.133-0.399v-0.799h-1.154v3.239c0,0.133-0.044,0.222-0.089,0.266
			c-0.089,0.044-0.177,0.089-0.311,0.089h-0.488c-0.177,0-0.399-0.089-0.577-0.222c-0.044-0.044-0.089-0.044-0.089-0.044
			l-5.014-2.884c-0.133-0.044-0.177-0.133-0.222-0.177s-0.044-0.089-0.044-0.177c0-0.044,0-0.089,0-0.133v-0.044l0.089-0.71
			c0-0.044,0.044-0.133,0.089-0.177s0.133-0.044,0.266-0.044h5.28v-0.355c0-0.089-0.044-0.177-0.133-0.222s-0.133-0.133-0.133-0.177
			c0-0.089,0.044-0.177,0.089-0.222s0.133-0.089,0.266-0.089c0.044,0,0.089,0,0.133,0c0.044,0,0.089,0,0.089,0.044l0.266,0.044
			c0.177,0.044,0.266,0.089,0.355,0.133c0.044,0.044,0.089,0.177,0.089,0.311v0.577h1.154v-0.222c0-0.311,0.044-0.488,0.089-0.621
			c0.089-0.089,0.177-0.177,0.355-0.177c0.177,0,0.311,0.044,0.355,0.133c0.089,0.089,0.133,0.222,0.133,0.399v2.219H365.391z
			 M362.196,394.031h-4.703l4.703,2.618V394.031z"/>
	</g>
</g>
<g id="Laag_3">
	<path fill="none" stroke="#FFFFFF" stroke-width="3.1305" stroke-miterlimit="10" d="M374.664,469.815
		c0,2.928-2.396,5.324-5.324,5.324H178.105c-2.928,0-5.324-2.396-5.324-5.324v-88.74c0-2.928,2.396-5.324,5.324-5.324H369.34
		c2.928,0,5.324,2.396,5.324,5.324V469.815z"/>
	
		<line fill="none" stroke="#FFFFFF" stroke-width="2.6833" stroke-miterlimit="10" x1="203.618" y1="375.972" x2="203.618" y2="475.361"/>
	
		<line fill="none" stroke="#FFFFFF" stroke-width="2.6833" stroke-miterlimit="10" x1="346.489" y1="375.972" x2="346.489" y2="475.361"/>
	<rect x="168.5" y="412.83" fill="none" width="214" height="35.5"/>
	<text transform="matrix(1 0 0 1 227.2388 440.1302)" fill="#FFFFFF" font-family="'BebasNeue'" font-size="39">KERM.IS</text>
	<line fill="none" stroke="#FFFFFF" stroke-miterlimit="10" x1="212.715" y1="401" x2="337" y2="401"/>
	<line fill="none" stroke="#FFFFFF" stroke-miterlimit="10" x1="212.715" y1="453" x2="337" y2="453"/>
</g>
</svg>
