<?xml version="1.0" encoding="utf-8"?>
<!-- Generator: Adobe Illustrator 17.0.0, SVG Export Plug-In . SVG Version: 6.00 Build 0)  -->
<!DOCTYPE svg PUBLIC "-//W3C//DTD SVG 1.1//EN" "http://www.w3.org/Graphics/SVG/1.1/DTD/svg11.dtd">
<svg version="1.1" xmlns="http://www.w3.org/2000/svg" xmlns:xlink="http://www.w3.org/1999/xlink" x="0px" y="0px"
	 width="265.426px" height="204.282px" viewBox="0 0 265.426 204.282" enable-background="new 0 0 265.426 204.282"
	 xml:space="preserve">
<g id="Layer_1" display="none">
	<path display="inline" fill="#C9C9C9" d="M264.953,204.282V101h40v63.949C304.953,164.949,309.62,203.282,264.953,204.282z"/>
	<path display="inline" fill="#C9C9C9" d="M264.953,0v103.282h40V39.333C304.953,39.333,309.62,1,264.953,0z"/>
</g>
<g id="Layer_3" display="none">
	<path display="inline" fill="#B7B7B7" d="M265.092,204.282V101h-40v63.949C225.092,164.949,220.426,203.282,265.092,204.282z"/>
	<path display="inline" fill="#B7B7B7" d="M265.092,0.141v103.282h-40V39.474C225.092,39.474,220.426,1.141,265.092,0.141z"/>
	<rect x="260.092" y="23.474" display="inline" fill="#050606" width="5.333" height="159.333"/>
</g>
<g id="Layer_2">
	<g id="Laag_2">
		<linearGradient id="SVGID_1_" gradientUnits="userSpaceOnUse" x1="133.11" y1="39.097" x2="133.11" y2="171.1135">
			<stop  offset="0.5" style="stop-color:#00A9A9"/>
			<stop  offset="0.5" style="stop-color:#00A39F"/>
		</linearGradient>
		<path fill="url(#SVGID_1_)" d="M266.22,151.147v-7.01c-3.683-0.444-3.683-6.167,0-6.611v-6.434c-3.683-0.444-3.683-6.167,0-6.611
			v-6.655c-10.249-1.154-18.414-10.028-18.414-20.499s8.164-19.39,18.414-20.499V71.37c-3.683-0.444-3.683-6.167,0-6.611v-6.655
			c-4.082-0.133-4.082-6.478,0-6.655V45.99c-0.044,0-0.089,0-0.133,0c-4.304,0-4.304-6.655,0-6.655c0.044,0,0.089,0,0.133,0v-1.864
			H0v4.792c0.044,0,0.089,0,0.133,0c4.304,0,4.304,6.655,0,6.655c-0.044,0-0.089,0-0.133,0v4.881c4.082,0.133,4.082,6.478,0,6.655
			v5.812c3.683,0.444,3.683,6.167,0,6.611v7.188c9.54,1.775,16.949,10.294,16.949,20.277S9.54,118.846,0,120.621v6.877
			c3.683,0.444,3.683,6.167,0,6.611v5.812c4.082,0.133,4.082,6.478,0,6.656v6.079c3.683,0.444,3.683,6.167,0,6.611v11.314h266.22
			v-12.823C262.537,157.315,262.537,151.591,266.22,151.147z"/>
		<g>
			<linearGradient id="SVGID_2_" gradientUnits="userSpaceOnUse" x1="42.4621" y1="70.9928" x2="51.4692" y2="70.9928">
				<stop  offset="0" style="stop-color:#00A9A9"/>
				<stop  offset="1" style="stop-color:#00A39F"/>
			</linearGradient>
			<path fill="url(#SVGID_2_)" d="M49.916,69.107c0-0.044,0-0.089,0-0.133c0-0.044,0-0.044,0-0.089c0-0.133,0.044-0.266,0.133-0.355
				s0.177-0.133,0.311-0.133c0.089,0,0.222,0.044,0.311,0.133c0.089,0.089,0.133,0.177,0.177,0.355l0.577,2.041
				c0,0.044,0.044,0.089,0.044,0.133s0,0.089,0,0.133c0,0.089-0.044,0.177-0.133,0.222c-0.089,0.044-0.177,0.089-0.311,0.089h-7.587
				v1.109c0,0.399-0.044,0.666-0.089,0.799s-0.177,0.177-0.399,0.177c-0.177,0-0.311-0.044-0.355-0.133
				c-0.044-0.089-0.133-0.222-0.133-0.399V68.93c0-0.177,0.044-0.311,0.133-0.399c0.089-0.089,0.222-0.133,0.355-0.133
				c0.177,0,0.311,0.044,0.399,0.177c0.089,0.133,0.089,0.355,0.089,0.799v1.154h6.789L49.916,69.107z"/>
			<linearGradient id="SVGID_3_" gradientUnits="userSpaceOnUse" x1="42.2846" y1="79.2678" x2="51.5136" y2="79.2678">
				<stop  offset="0" style="stop-color:#00A9A9"/>
				<stop  offset="1" style="stop-color:#00A39F"/>
			</linearGradient>
			<path fill="url(#SVGID_3_)" d="M46.677,80.865c-0.311-0.266-0.577-0.532-0.71-0.843c-0.177-0.311-0.222-0.621-0.222-0.976
				c0-0.71,0.266-1.331,0.843-1.864c0.577-0.532,1.242-0.754,2.041-0.754c0.843,0,1.553,0.266,2.085,0.754
				c0.532,0.488,0.799,1.109,0.799,1.908c0,0.887-0.355,1.642-1.109,2.174c-0.754,0.532-1.686,0.843-2.884,0.843
				c-1.597,0-2.84-0.399-3.816-1.198c-0.932-0.799-1.42-1.908-1.42-3.239c0-0.444,0.044-0.71,0.089-0.843
				c0.044-0.133,0.177-0.222,0.355-0.222c0.311,0,0.444,0.266,0.444,0.843c0,0.355,0.044,0.666,0.089,0.887
				c0.133,0.71,0.488,1.331,1.109,1.775C44.947,80.466,45.701,80.732,46.677,80.865z M48.541,80.688
				c0.577,0,1.021-0.133,1.375-0.444c0.355-0.311,0.532-0.71,0.532-1.154s-0.177-0.799-0.488-1.109
				c-0.355-0.266-0.799-0.399-1.331-0.399c-0.577,0-1.021,0.133-1.375,0.444c-0.355,0.311-0.532,0.666-0.532,1.109
				c0,0.444,0.177,0.799,0.488,1.109C47.565,80.555,48.008,80.688,48.541,80.688z"/>
			<linearGradient id="SVGID_4_" gradientUnits="userSpaceOnUse" x1="42.2402" y1="87.7869" x2="51.4692" y2="87.7869">
				<stop  offset="0" style="stop-color:#00A9A9"/>
				<stop  offset="1" style="stop-color:#00A39F"/>
			</linearGradient>
			<path fill="url(#SVGID_4_)" d="M42.24,87.787c0-0.887,0.399-1.553,1.242-2.085c0.843-0.532,1.952-0.754,3.372-0.754
				s2.529,0.266,3.372,0.754s1.242,1.198,1.242,2.085s-0.399,1.553-1.242,2.085s-1.952,0.754-3.372,0.754s-2.529-0.266-3.372-0.754
				C42.684,89.34,42.24,88.674,42.24,87.787z M50.449,87.787c0-0.532-0.311-0.932-0.932-1.242s-1.509-0.444-2.662-0.444
				c-1.154,0-2.041,0.133-2.662,0.444c-0.621,0.311-0.932,0.71-0.932,1.242s0.311,0.932,0.932,1.242
				c0.621,0.311,1.509,0.444,2.662,0.444c1.154,0,2.041-0.133,2.662-0.444C50.138,88.763,50.449,88.319,50.449,87.787z"/>
			<linearGradient id="SVGID_5_" gradientUnits="userSpaceOnUse" x1="42.2846" y1="96.3059" x2="51.5136" y2="96.3059">
				<stop  offset="0" style="stop-color:#00A9A9"/>
				<stop  offset="1" style="stop-color:#00A39F"/>
			</linearGradient>
			<path fill="url(#SVGID_5_)" d="M46.677,97.903c-0.311-0.266-0.577-0.532-0.71-0.843c-0.177-0.311-0.222-0.621-0.222-0.976
				c0-0.71,0.266-1.331,0.843-1.864c0.577-0.532,1.242-0.754,2.041-0.754c0.843,0,1.553,0.266,2.085,0.754
				c0.532,0.488,0.799,1.109,0.799,1.908c0,0.887-0.355,1.642-1.109,2.174c-0.754,0.532-1.686,0.843-2.884,0.843
				c-1.597,0-2.84-0.399-3.816-1.198c-0.932-0.799-1.42-1.908-1.42-3.239c0-0.444,0.044-0.71,0.089-0.843s0.177-0.222,0.355-0.222
				c0.311,0,0.444,0.266,0.444,0.843c0,0.355,0.044,0.666,0.089,0.887c0.133,0.71,0.488,1.331,1.109,1.775
				C44.947,97.504,45.701,97.77,46.677,97.903z M48.541,97.77c0.577,0,1.021-0.133,1.375-0.444c0.355-0.311,0.532-0.71,0.532-1.154
				c0-0.444-0.177-0.799-0.488-1.109c-0.355-0.266-0.799-0.399-1.331-0.399c-0.577,0-1.021,0.133-1.375,0.444
				c-0.355,0.311-0.532,0.666-0.532,1.109c0,0.444,0.177,0.799,0.488,1.109C47.565,97.593,48.008,97.77,48.541,97.77z"/>
			<linearGradient id="SVGID_6_" gradientUnits="userSpaceOnUse" x1="42.3733" y1="104.5809" x2="51.3361" y2="104.5809">
				<stop  offset="0" style="stop-color:#00A9A9"/>
				<stop  offset="1" style="stop-color:#00A39F"/>
			</linearGradient>
			<path fill="url(#SVGID_6_)" d="M42.462,102.429c0-0.266,0.044-0.444,0.133-0.532s0.266-0.177,0.444-0.177
				c0.311,0,0.843,0.444,1.686,1.331l0.177,0.222c0.133,0.133,0.311,0.311,0.532,0.577c1.509,1.597,2.618,2.396,3.283,2.396
				c0.488,0,0.887-0.133,1.198-0.444c0.311-0.266,0.444-0.666,0.444-1.109c0-0.311-0.044-0.577-0.177-0.843
				c-0.133-0.266-0.266-0.488-0.488-0.621c-0.044-0.044-0.089-0.089-0.177-0.133c-0.311-0.177-0.444-0.355-0.444-0.577
				c0-0.177,0.044-0.266,0.133-0.355c0.089-0.089,0.311-0.089,0.577-0.089c0.177,0,0.266,0,0.355,0.044
				c0.089,0.044,0.177,0.089,0.266,0.177c0.266,0.311,0.532,0.666,0.666,1.109c0.177,0.444,0.266,0.887,0.266,1.331
				c0,0.754-0.266,1.42-0.754,1.908c-0.488,0.532-1.109,0.754-1.819,0.754c-0.887,0-2.13-0.799-3.594-2.352
				c-0.355-0.399-0.666-0.71-0.887-0.932l-0.799-0.843v3.15c0.177,0,0.355,0.089,0.444,0.177c0.089,0.089,0.177,0.222,0.177,0.355
				s-0.044,0.266-0.133,0.355c-0.089,0.089-0.222,0.133-0.399,0.133c0,0-0.044,0-0.089,0c-0.044,0-0.044,0-0.089,0l-0.532-0.044
				c-0.133,0-0.266-0.044-0.355-0.133c-0.089-0.089-0.133-0.177-0.133-0.266v-4.57H42.462z"/>
			<linearGradient id="SVGID_7_" gradientUnits="userSpaceOnUse" x1="42.2402" y1="113.344" x2="51.4692" y2="113.344">
				<stop  offset="0" style="stop-color:#00A9A9"/>
				<stop  offset="1" style="stop-color:#00A39F"/>
			</linearGradient>
			<path fill="url(#SVGID_7_)" d="M42.24,113.344c0-0.887,0.399-1.553,1.242-2.085c0.843-0.532,1.952-0.754,3.372-0.754
				s2.529,0.266,3.372,0.754c0.843,0.488,1.242,1.198,1.242,2.085c0,0.887-0.399,1.553-1.242,2.085
				c-0.843,0.532-1.952,0.754-3.372,0.754s-2.529-0.266-3.372-0.754C42.684,114.941,42.24,114.231,42.24,113.344z M50.449,113.344
				c0-0.532-0.311-0.932-0.932-1.242c-0.621-0.311-1.509-0.444-2.662-0.444c-1.154,0-2.041,0.133-2.662,0.444
				c-0.621,0.311-0.932,0.71-0.932,1.242c0,0.532,0.311,0.932,0.932,1.242c0.621,0.311,1.509,0.444,2.662,0.444
				c1.154,0,2.041-0.133,2.662-0.444C50.138,114.32,50.449,113.921,50.449,113.344z"/>
			<linearGradient id="SVGID_8_" gradientUnits="userSpaceOnUse" x1="42.4621" y1="122.0849" x2="51.4692" y2="122.0849">
				<stop  offset="0" style="stop-color:#00A9A9"/>
				<stop  offset="1" style="stop-color:#00A39F"/>
			</linearGradient>
			<path fill="url(#SVGID_8_)" d="M49.916,120.221c0-0.044,0-0.089,0-0.133s0-0.044,0-0.089c0-0.133,0.044-0.266,0.133-0.355
				c0.089-0.089,0.177-0.133,0.311-0.133c0.089,0,0.222,0.044,0.311,0.133c0.089,0.089,0.133,0.177,0.177,0.355l0.577,2.041
				c0,0.044,0.044,0.089,0.044,0.133s0,0.089,0,0.133c0,0.089-0.044,0.177-0.133,0.222c-0.089,0.044-0.177,0.089-0.311,0.089h-7.587
				v1.109c0,0.399-0.044,0.666-0.089,0.799c-0.044,0.133-0.177,0.177-0.399,0.177c-0.177,0-0.311-0.044-0.355-0.133
				c-0.044-0.089-0.133-0.222-0.133-0.399v-4.171c0-0.177,0.044-0.311,0.133-0.399c0.089-0.089,0.222-0.133,0.355-0.133
				c0.177,0,0.311,0.044,0.399,0.177c0.089,0.133,0.089,0.355,0.089,0.799v1.154h6.789L49.916,120.221z"/>
			<linearGradient id="SVGID_9_" gradientUnits="userSpaceOnUse" x1="42.4621" y1="130.6261" x2="51.4692" y2="130.6261">
				<stop  offset="0" style="stop-color:#00A9A9"/>
				<stop  offset="1" style="stop-color:#00A39F"/>
			</linearGradient>
			<path fill="url(#SVGID_9_)" d="M49.916,128.74c0-0.044,0-0.089,0-0.133s0-0.044,0-0.089c0-0.133,0.044-0.266,0.133-0.355
				s0.177-0.133,0.311-0.133c0.089,0,0.222,0.044,0.311,0.133c0.089,0.089,0.133,0.177,0.177,0.355l0.577,2.041
				c0,0.044,0.044,0.089,0.044,0.133s0,0.089,0,0.133c0,0.089-0.044,0.177-0.133,0.222c-0.089,0.044-0.177,0.089-0.311,0.089h-7.587
				v1.109c0,0.399-0.044,0.666-0.089,0.799c-0.044,0.133-0.177,0.177-0.399,0.177c-0.177,0-0.311-0.044-0.355-0.133
				c-0.044-0.089-0.133-0.222-0.133-0.399v-4.126c0-0.177,0.044-0.311,0.133-0.399c0.089-0.089,0.222-0.133,0.355-0.133
				c0.177,0,0.311,0.044,0.399,0.177s0.089,0.355,0.089,0.799v1.154h6.789L49.916,128.74z"/>
		</g>
		<g>
			<linearGradient id="SVGID_10_" gradientUnits="userSpaceOnUse" x1="214.8839" y1="130.1824" x2="223.8022" y2="130.1824">
				<stop  offset="0" style="stop-color:#00A9A9"/>
				<stop  offset="1" style="stop-color:#00A39F"/>
			</linearGradient>
			<path fill="url(#SVGID_10_)" d="M216.437,132.068c0,0.044,0,0.089,0,0.133s0,0.044,0,0.089c0,0.133-0.044,0.266-0.133,0.355
				c-0.089,0.089-0.177,0.133-0.311,0.133c-0.089,0-0.222-0.044-0.311-0.133c-0.089-0.089-0.133-0.177-0.177-0.355l-0.577-2.041
				c0-0.044-0.044-0.089-0.044-0.133s0-0.089,0-0.133c0-0.089,0.044-0.177,0.133-0.222c0.089-0.044,0.177-0.089,0.311-0.089h7.499
				v-1.109c0-0.399,0.044-0.666,0.089-0.799c0.089-0.089,0.177-0.177,0.399-0.177c0.177,0,0.311,0.044,0.355,0.133
				c0.044,0.089,0.133,0.222,0.133,0.399v4.126c0,0.177-0.044,0.311-0.133,0.399c-0.089,0.089-0.222,0.133-0.355,0.133
				c-0.177,0-0.311-0.044-0.399-0.177c-0.089-0.089-0.089-0.355-0.089-0.799v-1.154h-6.789L216.437,132.068z"/>
			<linearGradient id="SVGID_11_" gradientUnits="userSpaceOnUse" x1="214.8839" y1="121.9074" x2="224.1129" y2="121.9074">
				<stop  offset="0" style="stop-color:#00A9A9"/>
				<stop  offset="1" style="stop-color:#00A39F"/>
			</linearGradient>
			<path fill="url(#SVGID_11_)" d="M219.72,120.31c0.311,0.266,0.577,0.532,0.71,0.843c0.177,0.311,0.222,0.621,0.222,0.976
				c0,0.71-0.266,1.331-0.843,1.864c-0.532,0.532-1.242,0.754-2.041,0.754c-0.843,0-1.553-0.266-2.085-0.754
				c-0.532-0.488-0.799-1.109-0.799-1.908c0-0.887,0.355-1.642,1.109-2.174c0.71-0.577,1.686-0.843,2.884-0.843
				c1.597,0,2.84,0.399,3.816,1.198c0.932,0.799,1.42,1.908,1.42,3.239c0,0.444-0.044,0.71-0.089,0.843
				c-0.044,0.133-0.177,0.222-0.355,0.222c-0.311,0-0.444-0.266-0.444-0.843c0-0.355-0.044-0.666-0.089-0.887
				c-0.133-0.71-0.488-1.331-1.109-1.775C221.451,120.709,220.652,120.443,219.72,120.31z M217.857,120.443
				c-0.577,0-1.021,0.133-1.375,0.444c-0.355,0.311-0.532,0.71-0.532,1.154s0.177,0.799,0.488,1.109
				c0.355,0.266,0.799,0.399,1.331,0.399c0.577,0,1.021-0.133,1.375-0.444c0.355-0.311,0.532-0.666,0.532-1.109
				s-0.177-0.799-0.488-1.109C218.788,120.621,218.345,120.443,217.857,120.443z"/>
			<linearGradient id="SVGID_12_" gradientUnits="userSpaceOnUse" x1="214.8839" y1="113.3884" x2="224.1129" y2="113.3884">
				<stop  offset="0" style="stop-color:#00A9A9"/>
				<stop  offset="1" style="stop-color:#00A39F"/>
			</linearGradient>
			<path fill="url(#SVGID_12_)" d="M224.113,113.388c0,0.887-0.399,1.553-1.242,2.085c-0.843,0.532-1.952,0.754-3.372,0.754
				s-2.529-0.266-3.372-0.754c-0.843-0.488-1.242-1.198-1.242-2.085c0-0.887,0.399-1.553,1.242-2.085
				c0.843-0.532,1.952-0.754,3.372-0.754s2.529,0.266,3.372,0.754C223.714,111.791,224.113,112.501,224.113,113.388z
				 M215.904,113.388c0,0.532,0.311,0.932,0.932,1.242c0.621,0.311,1.509,0.444,2.662,0.444c1.154,0,2.041-0.133,2.662-0.444
				c0.621-0.311,0.932-0.71,0.932-1.242c0-0.532-0.311-0.932-0.932-1.242c-0.621-0.311-1.509-0.444-2.662-0.444
				c-1.154,0-2.041,0.133-2.662,0.444C216.215,112.412,215.904,112.856,215.904,113.388z"/>
			<linearGradient id="SVGID_13_" gradientUnits="userSpaceOnUse" x1="215.0614" y1="104.8693" x2="224.2016" y2="104.8693">
				<stop  offset="0" style="stop-color:#00A9A9"/>
				<stop  offset="1" style="stop-color:#00A39F"/>
			</linearGradient>
			<path fill="url(#SVGID_13_)" d="M219.365,106.511c-0.311-0.266-0.577-0.532-0.71-0.843c-0.177-0.311-0.222-0.621-0.222-1.021
				c0-0.71,0.266-1.331,0.843-1.864c0.532-0.532,1.242-0.754,2.041-0.754c0.843,0,1.553,0.266,2.085,0.754
				c0.532,0.488,0.799,1.109,0.799,1.908c0,0.932-0.355,1.642-1.065,2.174c-0.71,0.532-1.686,0.843-2.884,0.843
				c-1.553,0-2.84-0.399-3.771-1.198c-0.976-0.799-1.42-1.864-1.42-3.195c0-0.444,0.044-0.754,0.089-0.887
				c0.044-0.133,0.177-0.222,0.355-0.222c0.311,0,0.444,0.266,0.444,0.799c0,0.355,0.044,0.666,0.089,0.887
				c0.133,0.71,0.488,1.331,1.109,1.775C217.768,106.112,218.389,106.378,219.365,106.511z M221.184,106.334
				c0.577,0,1.02-0.133,1.375-0.444c0.355-0.311,0.532-0.666,0.532-1.154c0-0.444-0.177-0.799-0.488-1.109
				c-0.355-0.266-0.799-0.444-1.331-0.444c-0.577,0-1.021,0.133-1.375,0.444c-0.355,0.311-0.532,0.666-0.532,1.154
				c0,0.444,0.177,0.799,0.488,1.109C220.253,106.2,220.652,106.334,221.184,106.334z"/>
			<linearGradient id="SVGID_14_" gradientUnits="userSpaceOnUse" x1="215.017" y1="96.5721" x2="223.9798" y2="96.5721">
				<stop  offset="0" style="stop-color:#00A9A9"/>
				<stop  offset="1" style="stop-color:#00A39F"/>
			</linearGradient>
			<path fill="url(#SVGID_14_)" d="M223.891,98.746c0,0.266-0.044,0.444-0.133,0.532c-0.089,0.133-0.266,0.177-0.444,0.177
				c-0.311,0-0.843-0.444-1.686-1.331l-0.177-0.222c-0.133-0.133-0.311-0.311-0.532-0.577c-1.509-1.597-2.618-2.396-3.283-2.396
				c-0.488,0-0.887,0.133-1.198,0.444c-0.311,0.266-0.444,0.666-0.444,1.109c0,0.311,0.044,0.577,0.177,0.843
				c0.133,0.266,0.266,0.488,0.488,0.621c0.044,0.044,0.089,0.089,0.177,0.133c0.311,0.177,0.444,0.355,0.444,0.577
				c0,0.177-0.044,0.266-0.133,0.355s-0.311,0.089-0.577,0.089c-0.177,0-0.266,0-0.355-0.044s-0.177-0.089-0.266-0.177
				c-0.266-0.311-0.532-0.666-0.666-1.109c-0.177-0.444-0.266-0.887-0.266-1.331c0-0.754,0.266-1.42,0.754-1.908
				c0.488-0.532,1.109-0.754,1.819-0.754c0.887,0,2.13,0.799,3.594,2.352c0.355,0.399,0.666,0.71,0.887,0.932l0.799,0.843v-3.195
				c-0.177,0-0.355-0.089-0.444-0.177s-0.177-0.222-0.177-0.355s0.044-0.266,0.133-0.355c0.089-0.089,0.222-0.133,0.399-0.133
				c0,0,0.044,0,0.089,0s0.044,0,0.089,0l0.532,0.044c0.133,0,0.266,0.044,0.355,0.133c0.089,0.089,0.133,0.177,0.133,0.266v4.614
				H223.891z"/>
			<linearGradient id="SVGID_15_" gradientUnits="userSpaceOnUse" x1="214.8839" y1="87.7869" x2="224.1129" y2="87.7869">
				<stop  offset="0" style="stop-color:#00A9A9"/>
				<stop  offset="1" style="stop-color:#00A39F"/>
			</linearGradient>
			<path fill="url(#SVGID_15_)" d="M224.113,87.787c0,0.887-0.399,1.553-1.242,2.085c-0.843,0.532-1.952,0.754-3.372,0.754
				s-2.529-0.266-3.372-0.754s-1.242-1.198-1.242-2.085s0.399-1.553,1.242-2.085s1.952-0.754,3.372-0.754s2.529,0.266,3.372,0.754
				C223.714,86.19,224.113,86.944,224.113,87.787z M215.904,87.787c0,0.532,0.311,0.932,0.932,1.242
				c0.621,0.311,1.509,0.444,2.662,0.444c1.154,0,2.041-0.133,2.662-0.444c0.621-0.311,0.932-0.71,0.932-1.242
				s-0.311-0.932-0.932-1.242c-0.621-0.311-1.509-0.444-2.662-0.444c-1.154,0-2.041,0.133-2.662,0.444
				C216.215,86.855,215.904,87.254,215.904,87.787z"/>
			<linearGradient id="SVGID_16_" gradientUnits="userSpaceOnUse" x1="214.8839" y1="79.0682" x2="223.8022" y2="79.0682">
				<stop  offset="0" style="stop-color:#00A9A9"/>
				<stop  offset="1" style="stop-color:#00A39F"/>
			</linearGradient>
			<path fill="url(#SVGID_16_)" d="M216.437,80.954c0,0.044,0,0.089,0,0.133c0,0.044,0,0.044,0,0.089
				c0,0.133-0.044,0.266-0.133,0.355c-0.089,0.089-0.177,0.133-0.311,0.133c-0.089,0-0.222-0.044-0.311-0.133
				c-0.089-0.089-0.133-0.177-0.177-0.355l-0.577-2.041c0-0.044-0.044-0.089-0.044-0.133s0-0.089,0-0.133
				c0-0.089,0.044-0.177,0.133-0.222c0.089-0.044,0.177-0.089,0.311-0.089h7.499v-1.109c0-0.399,0.044-0.666,0.089-0.799
				c0.089-0.089,0.177-0.177,0.399-0.177c0.177,0,0.311,0.044,0.355,0.133c0.044,0.089,0.133,0.222,0.133,0.399v4.126
				c0,0.177-0.044,0.311-0.133,0.399c-0.089,0.089-0.222,0.133-0.355,0.133c-0.177,0-0.311-0.044-0.399-0.177
				c-0.089-0.089-0.089-0.355-0.089-0.799v-1.065h-6.789L216.437,80.954z"/>
			<linearGradient id="SVGID_17_" gradientUnits="userSpaceOnUse" x1="214.9283" y1="70.9263" x2="223.891" y2="70.9263">
				<stop  offset="0" style="stop-color:#00A9A9"/>
				<stop  offset="1" style="stop-color:#00A39F"/>
			</linearGradient>
			<path fill="url(#SVGID_17_)" d="M223.891,70.926c0,0.222-0.044,0.355-0.089,0.444c-0.089,0.089-0.222,0.133-0.399,0.133
				s-0.266-0.044-0.355-0.133c-0.089-0.089-0.133-0.222-0.133-0.399v-0.799h-1.154v3.239c0,0.133-0.044,0.222-0.089,0.266
				c-0.089,0.044-0.177,0.089-0.311,0.089h-0.488c-0.177,0-0.399-0.089-0.577-0.222c-0.044-0.044-0.089-0.044-0.089-0.044
				l-5.014-2.884c-0.133-0.044-0.177-0.133-0.222-0.177s-0.044-0.089-0.044-0.177c0-0.044,0-0.089,0-0.133v-0.044l0.089-0.71
				c0-0.044,0.044-0.133,0.089-0.177c0.044-0.044,0.133-0.044,0.266-0.044h5.28v-0.355c0-0.089-0.044-0.177-0.133-0.222
				c-0.089-0.044-0.133-0.133-0.133-0.177c0-0.089,0.044-0.177,0.089-0.222c0.044-0.044,0.133-0.089,0.266-0.089
				c0.044,0,0.089,0,0.133,0s0.089,0,0.089,0.044l0.266,0.044c0.177,0.044,0.266,0.089,0.355,0.133
				c0.044,0.044,0.089,0.177,0.089,0.311v0.577h1.154v-0.222c0-0.311,0.044-0.488,0.089-0.621c0.089-0.089,0.177-0.177,0.355-0.177
				s0.311,0.044,0.355,0.133c0.089,0.089,0.133,0.222,0.133,0.399v2.219H223.891z M220.696,70.172h-4.703l4.703,2.618V70.172z"/>
		</g>
	</g>
	<g id="Laag_3">
		<path fill="none" stroke="#FFFFFF" stroke-width="3.1305" stroke-miterlimit="10" d="M233.164,145.956
			c0,2.928-2.396,5.324-5.324,5.324H36.605c-2.928,0-5.324-2.396-5.324-5.324v-88.74c0-2.928,2.396-5.324,5.324-5.324H227.84
			c2.928,0,5.324,2.396,5.324,5.324V145.956z"/>
		
			<line fill="none" stroke="#FFFFFF" stroke-width="2.6833" stroke-miterlimit="10" x1="62.118" y1="52.113" x2="62.118" y2="151.502"/>
		
			<line fill="none" stroke="#FFFFFF" stroke-width="2.6833" stroke-miterlimit="10" x1="204.989" y1="52.113" x2="204.989" y2="151.502"/>
		<rect x="27" y="88.971" fill="none" width="214" height="35.5"/>
		<text transform="matrix(1 0 0 1 85.7388 116.2711)" fill="#FFFFFF" font-family="'BebasNeue'" font-size="39">KERM.IS</text>
		<line fill="none" stroke="#FFFFFF" stroke-miterlimit="10" x1="71.215" y1="77.141" x2="195.5" y2="77.141"/>
		<line fill="none" stroke="#FFFFFF" stroke-miterlimit="10" x1="71.215" y1="129.141" x2="195.5" y2="129.141"/>
	</g>
</g>
</svg>
