<?xml version="1.0" encoding="utf-8"?>
<!-- Generator: Adobe Illustrator 17.0.0, SVG Export Plug-In . SVG Version: 6.00 Build 0)  -->
<!DOCTYPE svg PUBLIC "-//W3C//DTD SVG 1.1//EN" "http://www.w3.org/Graphics/SVG/1.1/DTD/svg11.dtd">
<svg version="1.1" id="Layer_1" xmlns="http://www.w3.org/2000/svg" xmlns:xlink="http://www.w3.org/1999/xlink" x="0px" y="0px"
	 width="595.28px" height="247.113px" viewBox="0 0 595.28 247.113" enable-background="new 0 0 595.28 247.113"
	 xml:space="preserve">
<g id="layer1" transform="translate(-115.94417,-501.42131)">
	<path id="path22" fill="#FFFFFF" d="M424.485,552.465c-0.373,0.005-0.751,0.094-1.084,0.289c-0.665,0.391-1.084,1.108-1.084,1.88
		v55.304c0,0.543-0.253,1.029-0.723,1.301c-0.471,0.273-1.046,0.273-1.518,0l-9.037-5.205c-1.346-0.776-2.991-0.776-4.338,0
		l-36.074,20.821c-1.349,0.778-2.169,2.275-2.169,3.831v41.641c0,1.556,0.821,2.98,2.169,3.759l36.074,20.82
		c1.349,0.778,2.989,0.778,4.338,0l36.074-20.82c1.348-0.779,2.169-2.204,2.169-3.759V568.514c0-1.579-0.862-3.061-2.241-3.832
		l-21.471-12.001C425.233,552.494,424.859,552.461,424.485,552.465L424.485,552.465z M192.424,604.444
		c-0.688,0.028-1.334,0.148-1.952,0.506l-36.074,20.82c-1.344,0.777-2.169,2.192-2.169,3.759l0.072,55.883
		c0,0.777,0.401,1.499,1.084,1.88c0.67,0.401,1.501,0.401,2.169,0l21.399-12.29c1.356-0.805,2.241-2.206,2.241-3.759v-26.098
		c0-1.557,0.819-2.985,2.169-3.759l9.109-5.277c0.68-0.393,1.41-0.578,2.169-0.578c0.743,0,1.508,0.185,2.169,0.578l9.109,5.277
		c1.35,0.774,2.169,2.203,2.169,3.759v26.098c0,1.553,0.894,2.963,2.241,3.759l21.399,12.29c0.672,0.401,1.502,0.401,2.169,0
		c0.664-0.381,1.084-1.103,1.084-1.88l0.072-55.883c0-1.567-0.815-2.982-2.169-3.759l-36.074-20.82
		c-0.61-0.358-1.259-0.478-1.952-0.506H192.424L192.424,604.444z M516.587,604.95c-0.754-0.001-1.492,0.19-2.169,0.578
		l-36.074,20.82c-1.348,0.778-2.169,2.203-2.169,3.759v41.641c0,1.566,0.882,2.985,2.241,3.759l35.785,20.387
		c1.322,0.755,2.935,0.811,4.265,0.072l21.688-12.073c0.688-0.382,1.154-1.095,1.157-1.88c0.005-0.785-0.405-1.489-1.084-1.88
		l-36.291-20.82c-0.68-0.387-1.157-1.173-1.157-1.952v-13.013c0-0.778,0.483-1.491,1.157-1.879l11.278-6.507
		c0.671-0.388,1.495-0.388,2.169,0l11.278,6.507c0.674,0.388,1.084,1.101,1.084,1.879v10.266c0,0.779,0.411,1.491,1.084,1.879
		c0.677,0.39,1.495,0.391,2.169,0l21.616-12.579c1.342-0.779,2.169-2.207,2.169-3.759v-10.049c0-1.552-0.824-2.98-2.169-3.759
		l-35.857-20.82C518.08,605.136,517.34,604.95,516.587,604.95L516.587,604.95z M408.725,636.036c0.188,0,0.409,0.046,0.578,0.143
		l12.362,7.157c0.335,0.194,0.578,0.552,0.578,0.94v14.314c0,0.389-0.241,0.747-0.578,0.94l-12.362,7.157
		c-0.337,0.192-0.748,0.192-1.084,0l-12.362-7.157c-0.337-0.194-0.578-0.551-0.578-0.94v-14.314c0-0.387,0.243-0.744,0.578-0.94
		l12.362-7.156c0.169-0.097,0.318-0.143,0.506-0.143V636.036z"/>
	<path id="path28" fill="#FFFFFF" d="M624.665,603.938c-1.251,0-2.467,0.259-3.542,0.867l-34.05,19.664
		c-2.204,1.269-3.542,3.667-3.542,6.217v39.255c0,2.549,1.339,4.944,3.542,6.217l8.892,5.133c4.32,2.129,5.914,2.096,7.88,2.096
		c6.396,0,10.049-3.881,10.049-10.627v-38.749c0-0.548-0.474-0.94-1.012-0.94h-4.265c-0.547,0-1.012,0.392-1.012,0.94v38.749
		c0,2.99-3.114,5.997-8.169,3.47l-9.254-5.422c-0.327-0.178-0.578-0.492-0.578-0.867v-39.255c0-0.373,0.249-0.751,0.578-0.94
		l33.978-19.592c0.318-0.183,0.697-0.183,1.012,0l33.978,19.592c0.324,0.194,0.578,0.556,0.578,0.94v39.255
		c0,0.375-0.188,0.759-0.506,0.94l-34.05,19.592c-0.292,0.174-0.694,0.174-1.012,0l-8.747-5.205c-0.26-0.153-0.616-0.141-0.867,0
		c-2.415,1.369-2.869,1.528-5.133,2.313c-0.558,0.194-1.405,0.497,0.289,1.446l11.422,6.723c1.087,0.629,2.299,0.94,3.542,0.94
		c1.261,0,2.455-0.31,3.542-0.94l34.05-19.592c2.203-1.282,3.542-3.668,3.542-6.217v-39.255c0-2.551-1.339-4.943-3.542-6.217
		l-34.05-19.664C627.141,604.196,625.916,603.938,624.665,603.938L624.665,603.938z M300.791,604.733
		c-0.752,0-1.496,0.19-2.169,0.578l-36.074,20.748c-1.349,0.777-2.169,2.276-2.169,3.831v41.641c0,1.557,0.821,2.98,2.169,3.759
		l36.074,20.82c1.349,0.779,2.989,0.779,4.338,0l36.074-20.82c1.346-0.779,2.169-2.202,2.169-3.759v-41.641
		c0-1.558-0.82-3.054-2.169-3.831l-36.074-20.748C302.287,604.922,301.543,604.733,300.791,604.733z M675.198,604.95v1.012h2.819
		v7.446h1.157v-7.446h2.892v-1.012H675.198z M683.078,604.95v8.458h1.084v-4.988c0-0.204,0.009-0.518,0-0.94
		c-0.014-0.429,0-0.803,0-1.012v-0.217l2.386,7.157h1.157l2.458-7.157c0,0.455-0.061,0.895-0.072,1.301
		c-0.005,0.396,0,0.693,0,0.867v4.988h1.084v-8.458h-1.59l-2.458,7.157l-2.386-7.157L683.078,604.95L683.078,604.95z
		 M633.774,631.988c-9.696,0-15.471,4.126-15.471,10.989c0,7.444,5.731,9.49,15.037,10.41c11.133,1.09,12.001,2.724,12.001,4.916
		c0,3.801-3.031,5.422-10.193,5.422c-8.999,0-10.977-2.247-11.639-6.723c-0.078-0.48-0.448-0.867-0.94-0.867h-4.41
		c-0.544,0-1.012,0.467-1.012,1.012c0,5.73,3.117,12.507,18.001,12.507c10.775,0,16.989-4.229,16.989-11.639
		c0-7.346-5.02-9.318-15.471-10.699c-10.561-1.397-11.567-2.081-11.567-4.554c0-2.042,0.853-4.772,8.675-4.772
		c6.986,0,9.569,1.507,10.627,6.217c0.093,0.443,0.483,0.795,0.94,0.795h4.41c0.272,0,0.535-0.167,0.723-0.362
		c0.185-0.208,0.315-0.443,0.289-0.723C650.081,635.804,644.67,631.988,633.774,631.988L633.774,631.988z M516.515,641.892
		c-0.144,0-0.304,0-0.434,0.072l-6.94,4.048c-0.26,0.148-0.434,0.424-0.434,0.723v7.952c0,0.299,0.173,0.574,0.434,0.723l6.94,3.976
		c0.26,0.15,0.538,0.15,0.795,0l6.94-3.976c0.257-0.148,0.434-0.424,0.434-0.723v-7.952c0-0.299-0.176-0.574-0.434-0.723
		l-6.94-4.048C516.747,641.888,516.659,641.892,516.515,641.892z"/>
</g>
</svg>
