<?xml version="1.0" encoding="utf-8"?>
<!-- Generator: Adobe Illustrator 17.0.0, SVG Export Plug-In . SVG Version: 6.00 Build 0)  -->
<!DOCTYPE svg PUBLIC "-//W3C//DTD SVG 1.1//EN" "http://www.w3.org/Graphics/SVG/1.1/DTD/svg11.dtd">
<svg version="1.1" id="Layer_1" xmlns="http://www.w3.org/2000/svg" xmlns:xlink="http://www.w3.org/1999/xlink" x="0px" y="0px"
	 width="595.28px" height="247.113px" viewBox="0 0 595.28 247.113" enable-background="new 0 0 595.28 247.113"
	 xml:space="preserve">
<g>
	<path fill="#FFFFFF" d="M191.465,133.342c-0.055,44.081-35.438,78.949-80.042,78.877c-43.24-0.069-78.27-35.409-78.566-78.888
		c-0.295-43.415,36.012-81.023,81.811-79.526C158.884,55.251,191.886,91.902,191.465,133.342z M111.798,65.11
		c-36.477,0.028-67.2,30.663-67.507,66.764c-0.359,42.313,35.303,68.735,66.381,69.118c42.618,0.525,69.673-35.857,69.526-67.577
		C179.991,88.68,141.495,64.521,111.798,65.11z"/>
	<path fill="#FFFFFF" d="M420.241,161.266c-13.22,0.702-13.217,0.701-19.886-9.552c-2.04-3.137-4.1-6.26-6.248-9.54
		c-7.065,5.261-2.63,12.715-4.491,19.023c-3.319,0-6.772,0-10.44,0c0-21.318,0-42.483,0-64.245c1.741,0,3.452,0,5.163,0
		c1.742,0,3.484,0,5.652,0c0,13.098,0,25.869,0,39.721c4.415-5.89,8.343-10.749,11.816-15.914c1.94-2.885,4.177-3.976,7.524-3.661
		c2.484,0.234,5.007,0.046,8.626,0.046c-5.779,6.463-10.919,12.211-16.218,18.137C407.854,143.87,413.887,152.342,420.241,161.266z"
		/>
	<path fill="#FFFFFF" d="M548.113,162.3c-13.423,0.004-22.129-8.963-22.127-22.79c0.002-13.956,9.046-23.314,22.639-23.425
		c12.942-0.105,22.395,9.617,22.311,22.945C570.848,152.891,561.623,162.297,548.113,162.3z M559.893,139.438
		c-1.037-3.415-1.55-6.996-3.151-9.996c-3.718-6.965-13.024-6.959-16.806-0.013c-3.543,6.507-3.567,13.402,0.094,19.866
		c3.866,6.826,12.768,6.793,16.578-0.055C558.205,146.368,558.765,142.92,559.893,139.438z"/>
	<path fill="#FFFFFF" d="M313.851,162.3c-13.321,0.015-22.334-9.152-22.339-22.721c-0.005-13.717,9.331-23.366,22.732-23.494
		c13.093-0.125,22.309,9.356,22.241,22.878C336.413,153.037,327.444,162.285,313.851,162.3z M325.667,139.005
		c-1.219-3.405-1.957-7.331-3.91-10.51c-3.538-5.761-11.763-5.549-15.615-0.022c-3.771,5.412-3.994,15.346-0.468,20.878
		c4.329,6.791,13.066,6.663,16.832-0.477C323.984,146.074,324.501,142.768,325.667,139.005z"/>
	<path fill="#FFFFFF" d="M458.855,142.479c-10.495,0-20.075,0-29.648,0c-0.1,6.044,3.049,10.178,9.633,10.947
		c5.135,0.6,10.441-0.254,16.012-0.476c0.361,1.854,0.808,4.153,1.308,6.727c-8.743,2.873-17.24,4.042-25.752,0.712
		c-8.576-3.355-13.135-11.971-12.366-22.549c0.838-11.511,7.785-19.599,18.364-21.378c10.668-1.794,19.731,4.414,21.63,15.082
		C458.657,135.03,458.589,138.639,458.855,142.479z M447.837,134.314c0.248-6.366-3.215-10.435-8.735-10.539
		c-5.466-0.103-9.699,4.374-9.841,10.539C435.461,134.314,441.656,134.314,447.837,134.314z"/>
	<path fill="#FFFFFF" d="M285.149,125.929c-3.578-0.568-7.019-1.596-10.411-1.457c-1.774,0.073-4.54,1.953-4.882,3.464
		c-0.331,1.46,1.477,4.1,3.057,5.144c2.786,1.842,6.219,2.67,9.191,4.274c4.717,2.547,7.294,6.645,6.857,12.068
		c-0.459,5.683-3.643,9.52-9.062,11.411c-6.576,2.295-13.115,1.758-19.632-0.292c-2.059-0.648-2.794-1.893-2.029-4.005
		c0.588-1.624,1.033-3.299,1.485-4.769c3.329,0.858,6.321,1.811,9.387,2.348c1.681,0.294,3.689,0.339,5.177-0.33
		c1.499-0.675,3.316-2.24,3.561-3.662c0.249-1.443-0.821-3.842-2.075-4.669c-2.794-1.843-6.107-2.878-9.127-4.404
		c-4.952-2.504-8.364-6.116-7.788-12.16c0.565-5.933,4.058-9.501,9.478-11.504c5.617-2.076,11.165-1.415,16.6,0.516
		c0.826,0.294,1.694,1.999,1.617,2.978C286.408,122.709,285.584,124.484,285.149,125.929z"/>
	<path fill="#FFFFFF" d="M486.738,153.177c0,2.627,0,5.114,0,7.66c-10.39,5.446-20.564-0.796-20.884-13.08
		c-0.19-7.285-0.035-14.579-0.035-22.022c-2.165-0.198-4.006-0.366-6.042-0.552c0-2.59,0-5.057,0-7.766
		c1.928-0.173,3.756-0.337,5.493-0.493c0.202-0.357,0.409-0.56,0.426-0.777c0.225-2.977-0.694-7.154,0.901-8.642
		c2.169-2.023,6.254-1.992,9.97-2.96c0,4.219,0,8.078,0,12.541c3.795,0,7.219,0,10.83,0c0,2.945,0,5.287,0,8.116
		c-3.374,0-6.698,0-10.069,0c0,8.462-0.209,16.452,0.214,24.409c0.067,1.266,2.835,2.69,4.606,3.463
		C483.393,153.616,485.066,153.177,486.738,153.177z"/>
	<path fill="#FFFFFF" d="M374.447,118.46c-0.626,2.645-1.222,5.163-1.865,7.876c-7.438-1.982-14.633-2.925-19.535,4.286
		c-3.626,5.335-3.653,11.346-0.288,16.778c4.873,7.867,12.496,6.478,19.808,4.881c0.214,0.259,0.342,0.345,0.364,0.452
		c1.736,8.343,3.302,7.866-6.624,9.27c-4.11,0.581-8.641,0.121-12.663-1.002c-9.968-2.784-15.228-11.855-14.447-23.669
		c0.681-10.296,8.399-18.877,18.5-20.569C364.139,115.684,369.032,116.129,374.447,118.46z"/>
	<path fill="#FFFFFF" d="M520.041,161.244c-3.589,0-6.944,0-10.513,0c0-14.631,0-29.064,0-43.798c3.499,0,6.838,0,10.513,0
		C520.041,131.902,520.041,146.431,520.041,161.244z"/>
	<path fill="#FFFFFF" d="M496.988,162.294c-3.863-0.043-6.827-3.029-6.885-6.936c-0.059-3.982,3.154-7.24,7.109-7.206
		c3.886,0.033,6.689,2.971,6.721,7.045C503.967,159.539,501.224,162.342,496.988,162.294z"/>
	<path fill="#FFFFFF" d="M514.885,110.695c-3.694,0.04-6.259-2.445-6.201-6.008c0.055-3.368,2.575-5.914,5.965-6.025
		c3.535-0.115,6.289,2.466,6.375,5.975C521.112,108.223,518.647,110.655,514.885,110.695z"/>
	<path fill="#FFFFFF" d="M130.48,137.967c-0.073-0.283-0.147-0.567-0.22-0.85c-6.503,0-13.009,0.112-19.507-0.058
		c-2.432-0.063-3.842,0.706-5.175,2.769c-7.508,11.622-15.186,23.134-22.788,34.695c-0.548,0.834-0.951,1.762-1.421,2.647
		c0.251,0.193,0.501,0.386,0.752,0.579C98.24,164.489,114.36,151.228,130.48,137.967z M93.824,128.163
		c0.091,0.264,0.182,0.529,0.273,0.793c6.628,0,13.263,0.151,19.881-0.113c1.536-0.061,3.576-1.153,4.435-2.416
		c7.731-11.361,15.256-22.862,22.822-34.334c0.651-0.986,1.163-2.064,1.739-3.099c-0.242-0.23-0.484-0.46-0.726-0.691
		C126.107,101.59,109.966,114.877,93.824,128.163z"/>
	<path fill="#FFFFFF" d="M130.48,137.967c-16.12,13.261-32.24,26.521-48.36,39.782c-0.251-0.193-0.501-0.386-0.752-0.579
		c0.47-0.885,0.873-1.814,1.421-2.647c7.602-11.562,15.279-23.074,22.788-34.695c1.333-2.063,2.743-2.832,5.175-2.769
		c6.498,0.17,13.004,0.058,19.507,0.058C130.333,137.401,130.406,137.684,130.48,137.967z"/>
	<path fill="#FFFFFF" d="M93.824,128.163c16.141-13.287,32.283-26.573,48.424-39.86c0.242,0.23,0.484,0.46,0.726,0.691
		c-0.576,1.035-1.089,2.113-1.739,3.099c-7.566,11.473-15.091,22.974-22.822,34.334c-0.86,1.263-2.899,2.355-4.435,2.416
		c-6.618,0.263-13.252,0.113-19.881,0.113C94.006,128.692,93.915,128.428,93.824,128.163z"/>
</g>
</svg>
