<?xml version="1.0" encoding="utf-8"?>
<!-- Generator: Adobe Illustrator 17.0.0, SVG Export Plug-In . SVG Version: 6.00 Build 0)  -->
<!DOCTYPE svg PUBLIC "-//W3C//DTD SVG 1.1//EN" "http://www.w3.org/Graphics/SVG/1.1/DTD/svg11.dtd">
<svg version="1.1" id="Layer_1" xmlns="http://www.w3.org/2000/svg" xmlns:xlink="http://www.w3.org/1999/xlink" x="0px" y="0px"
	 width="595.28px" height="247.113px" viewBox="0 0 595.28 247.113" enable-background="new 0 0 595.28 247.113"
	 xml:space="preserve">
<g id="OpenGL">
	<g>
		<g>
			<path fill="#FFFFFF" d="M465.109,169.116c-4.443,1.873-8.93,2.811-13.455,2.811c-7.146,0-13.569-1.246-19.276-3.73
				c-5.707-2.487-10.519-5.913-14.439-10.279c-3.92-4.363-6.924-9.492-9.015-15.383c-2.091-5.891-3.136-12.244-3.136-19.051
				c0-6.98,1.042-13.462,3.127-19.442c2.085-5.977,5.083-11.192,8.994-15.645c3.911-4.452,8.717-7.942,14.421-10.476
				c5.704-2.531,12.127-3.797,19.273-3.797c4.791,0,9.427,0.722,13.914,2.164c4.486,1.445,8.536,3.567,12.152,6.365
				c3.616,2.798,6.598,6.248,8.95,10.347c2.352,4.102,3.792,8.806,4.314,14.119h-19.599c-1.221-5.224-3.573-9.144-7.057-11.758
				c-3.486-2.613-7.712-3.92-12.674-3.92c-4.619,0-8.539,0.895-11.761,2.684c-3.222,1.79-5.836,4.191-7.841,7.201
				c-2.005,3.013-3.462,6.439-4.375,10.279c-0.916,3.841-1.371,7.81-1.371,11.912c0,3.929,0.458,7.748,1.375,11.457
				c0.916,3.708,2.377,7.047,4.382,10.014c2.005,2.967,4.622,5.344,7.85,7.134c3.226,1.79,7.152,2.684,11.777,2.684
				c6.802,0,12.054-1.716,15.762-5.147c3.708-3.431,5.867-8.407,6.479-14.925h-20.644v-15.35h39.142v50.449h-13.025l-2.084-10.583
				C473.604,163.953,469.552,167.243,465.109,169.116z"/>
			<path fill="#FFFFFF" d="M525.64,76.484v75.96h45.473v17.317h-65.939V76.484H525.64z"/>
		</g>
		<path fill="#FFFFFF" stroke="#FFFFFF" stroke-width="0.1629" stroke-linecap="round" stroke-linejoin="round" d="M381.922,181.357
			c-31.314,19.045-78.214,29.885-130.542,29.885c-94.279,0-170.706-39.257-170.706-87.685c0-48.429,76.428-87.687,170.706-87.687
			c52.521,0,99.612,11.041,130.926,30.206c-34.18-32.11-95.465-54.674-165.537-54.684C109.45,11.374,22.443,61.579,22.433,123.526
			c-0.009,61.945,86.982,112.18,194.301,112.195C286.528,235.733,347.653,213.242,381.922,181.357z"/>
	</g>
</g>
<g id="Layer_3">
	<g>
		<path fill="#FFFFFF" d="M185.306,172.189h-14.242l-26.114-99.266h14.66l18.714,80.74h0.279l22.48-80.74h14.8l22.53,80.74h0.279
			l18.659-80.74h15.633l-27.031,99.266h-14.292l-22.898-82.261h-0.279L185.306,172.189z"/>
		<path fill="#FFFFFF" d="M324.786,151.659c-0.381,3.14-3.426,12.437-11.799,17.965c-3.045,2.01-7.304,4.522-17.962,4.522
			c-18.651,0-29.489-13.945-29.489-32.915c0-20.352,9.642-36.559,31.592-36.559c19.158,0,28.547,15.076,28.547,38.318h-48.212
			c0,13.694,6.271,21.609,19.085,21.609c10.531,0,16.693-8.041,17.074-12.94H324.786z M314.128,134.196
			c-0.634-10.176-4.803-19.599-18.524-19.599c-10.277,0-18.143,9.423-18.143,19.599H314.128z"/>
		<path fill="#FFFFFF" d="M335.874,172.305V82.102h11.165v32.79h0.254c4.821-6.91,11.419-10.051,19.158-10.176
			c17.636,0,27.859,14.322,27.859,32.789c0,15.704-6.797,36.685-29.382,36.685c-11.292,0-15.986-6.407-18.27-10.051h-0.254v8.166
			L335.874,172.305L335.874,172.305z M364.421,114.641c-16.113,0-17.89,17.212-17.89,27.89c0,17.463,11.038,22.111,18.143,22.111
			c12.18,0,17.89-10.93,17.89-25.377C382.564,130.847,381.676,114.641,364.421,114.641z"/>
	</g>
</g>
<g id="Layer_4">
</g>
</svg>
